<?xml version="1.0" encoding="UTF-8"?>
<svg width="20px" height="33px" viewBox="0 0 20 33" version="1.1" xmlns="http://www.w3.org/2000/svg" xmlns:xlink="http://www.w3.org/1999/xlink">
    <!-- Generator: Sketch 51.2 (57519) - http://www.bohemiancoding.com/sketch -->
    <title>left-arrow copy</title>
    <desc>Created with Sketch.</desc>
    <defs></defs>
    <g id="Main" stroke="none" stroke-width="1" fill="none" fill-rule="evenodd">
        <g id="frontend-+-design" transform="translate(-1150.000000, -280.000000)" fill="#FFFFFF" fill-rule="nonzero">
            <g id="left-arrow-copy" transform="translate(1160.000000, 296.500000) scale(-1, 1) translate(-1160.000000, -296.500000) translate(1150.000000, 280.000000)">
                <path d="M6.88469884,16.5614844 L18.9835872,4.46207008 C19.3167313,4.12971482 19.5,3.68534742 19.5,3.21153082 C19.5,2.73745129 19.3167313,2.29334683 18.9835872,1.96046569 L17.923416,0.900820361 C17.5907978,0.567413344 17.1461675,0.383881721 16.6723509,0.383881721 C16.1985343,0.383881721 15.7544298,0.567413344 15.4215487,0.900820361 L1.01589393,15.3062122 C0.681698093,15.6401451 0.498692348,16.0863531 0.500007044,16.5606955 C0.498692348,17.0371415 0.681435153,17.4828236 1.01589393,17.8170195 L15.4081388,32.2084755 C15.7410199,32.5418825 16.1851244,32.7254142 16.6592039,32.7254142 C17.1330205,32.7254142 17.577125,32.5418825 17.9102691,32.2084755 L18.9701773,31.1488302 C19.6598671,30.4591404 19.6598671,29.3363897 18.9701773,28.6469629 L6.88469884,16.5614844 Z" id="Shape"></path>
            </g>
        </g>
    </g>
</svg>