<?xml version="1.0" encoding="UTF-8"?>
<svg width="1440px" height="599px" viewBox="0 0 1440 599" version="1.1" xmlns="http://www.w3.org/2000/svg" xmlns:xlink="http://www.w3.org/1999/xlink">
    <!-- Generator: Sketch 51.2 (57519) - http://www.bohemiancoding.com/sketch -->
    <title>Fill 1</title>
    <desc>Created with Sketch.</desc>
    <defs></defs>
    <g id="Main" stroke="none" stroke-width="1" fill="none" fill-rule="evenodd">
        <g id="pokedex-copy" transform="translate(0.000000, -324.000000)" fill="#EAEAEA">
            <path d="M1441,800.25193 L1441,373.88463 C1419.46981,386.767253 1402.7452,406.837877 1394.15549,430.779884 C1377.79489,413.882686 1354.86347,403.372823 1329.4711,403.372823 C1306.61099,403.372823 1285.74651,411.893017 1269.87299,425.921162 C1251.96031,390.042636 1214.86507,365.393674 1172.00057,365.393674 C1124.57366,365.393674 1084.2069,395.567081 1069.0749,437.742978 C1052.71504,420.845031 1029.78363,410.335917 1004.39126,410.335917 C991.057507,410.335917 978.403726,413.235706 967.021327,418.433287 C944.847189,363.233825 890.780418,324.250096 827.592568,324.250096 C774.077431,324.250096 727.107585,352.214924 700.508377,394.307606 C685.895736,384.06763 668.098635,378.05364 648.893558,378.05364 C628.585965,378.05364 609.855217,384.781332 594.796767,396.115852 C577.131758,385.07521 556.253769,378.686376 533.879993,378.686376 C493.674592,378.686376 458.29504,399.297524 437.734521,430.513745 C422.528219,388.47729 382.230504,358.43133 334.90266,358.43133 C287.475747,358.43133 247.108984,388.604736 231.976983,430.779884 C215.61713,413.882686 192.684966,403.372823 167.292595,403.372823 C144.432481,403.372823 123.568002,411.893017 107.695236,425.921162 C89.7818052,390.042636 52.6865625,365.393674 9.82206615,365.393674 C6.51076823,365.393674 3.23624583,365.54586 0,365.83449 L0,800.25193 L0,922.9997 L1441,922.9997 L1441,800.25193 Z" id="Fill-1"></path>
        </g>
    </g>
</svg>