<?xml version="1.0" encoding="UTF-8"?>
<svg width="1440px" height="377px" viewBox="0 0 1440 377" version="1.1" xmlns="http://www.w3.org/2000/svg" xmlns:xlink="http://www.w3.org/1999/xlink">
    <!-- Generator: Sketch 51.2 (57519) - http://www.bohemiancoding.com/sketch -->
    <title>Fill 7</title>
    <desc>Created with Sketch.</desc>
    <defs></defs>
    <g id="Main" stroke="none" stroke-width="1" fill="none" fill-rule="evenodd">
        <g id="pokedex-copy" transform="translate(0.000000, -547.000000)" fill="#FFFFFF">
            <path d="M1441,588.822593 C1438.79797,588.689666 1436.58093,588.619073 1434.34663,588.619073 C1386.91897,588.619073 1346.55221,618.84516 1331.42096,661.093943 C1315.06035,644.166493 1292.12894,633.639031 1266.73732,633.639031 C1253.40357,633.639031 1240.74903,636.543883 1229.36738,641.75129 C1207.1925,586.454702 1153.12648,547.40366 1089.93788,547.40366 C1036.42274,547.40366 989.452143,575.416563 962.853684,617.582736 C948.241044,607.325632 930.443943,601.300391 911.239616,601.300391 C890.752649,601.300391 871.868044,608.156234 856.742047,619.693035 L856.742047,621.599814 C838.382806,609.184348 816.249196,601.934983 792.423162,601.934983 C752.218511,601.934983 716.838959,622.581366 696.277691,653.85284 C681.072139,611.742991 640.773673,581.643822 593.445829,581.643822 C546.018917,581.643822 505.652154,611.869909 490.520903,654.118692 C474.160299,637.191993 451.228886,626.664531 425.836515,626.664531 C402.976401,626.664531 382.111171,635.19885 366.238406,649.251487 C348.324974,613.31032 311.230482,588.619073 268.365986,588.619073 C220.938323,588.619073 180.57231,618.84516 165.440309,661.093943 C149.079706,644.166493 126.148292,633.639031 100.755921,633.639031 C87.4221677,633.639031 74.7683865,636.543883 63.3859875,641.75129 C50.9498573,610.73966 28.4815151,584.838559 0,568.068818 L0,924.000375 L1441,924.000375 L1441,588.822593 Z" id="Fill-7"></path>
        </g>
    </g>
</svg>