<?xml version="1.0" encoding="UTF-8"?>
<svg width="1440px" height="512px" viewBox="0 0 1440 512" version="1.1" xmlns="http://www.w3.org/2000/svg" xmlns:xlink="http://www.w3.org/1999/xlink">
    <!-- Generator: Sketch 51.2 (57519) - http://www.bohemiancoding.com/sketch -->
    <title>Fill 4</title>
    <desc>Created with Sketch.</desc>
    <defs></defs>
    <g id="Main" stroke="none" stroke-width="1" fill="none" fill-rule="evenodd">
        <g id="pokedex-copy" transform="translate(0.000000, -411.000000)" fill="#F2F2F2">
            <path d="M1441,887.606182 L1441,514.221749 C1426.32281,503.831072 1408.39813,497.717058 1389.03844,497.717058 C1375.70469,497.717058 1363.05091,500.617392 1351.66851,505.814604 C1329.49362,450.618305 1275.4276,411.638088 1212.23975,411.638088 C1158.72461,411.638088 1111.75477,439.600185 1085.15481,481.689883 C1070.54217,471.450633 1052.74582,465.437069 1033.54074,465.437069 C1013.2324,465.437069 994.501647,472.164285 979.443947,483.49875 C961.778188,472.458891 940.90095,466.07051 918.527173,466.07051 C878.321772,466.07051 842.94222,486.680197 822.380952,517.894206 C807.175399,475.86073 766.876934,445.81615 719.54909,445.81615 C672.122178,445.81615 631.755415,475.988167 616.624164,518.160326 C600.26356,501.263576 577.332147,490.754457 551.939776,490.754457 C529.079661,490.754457 508.214432,499.274047 492.341667,513.301948 C474.428235,477.425965 437.333743,452.77875 394.469247,452.77875 C347.041584,452.77875 306.675571,482.950018 291.54357,525.122176 C275.182967,508.226176 252.251553,497.717058 226.859182,497.717058 C213.526179,497.717058 200.871647,500.617392 189.489999,505.814604 C167.31511,450.618305 113.249091,411.638088 50.0612406,411.638088 C32.5073089,411.638088 15.6573656,414.647119 0,420.17567 L0,887.606182 L0,923.00015 L1441,923.00015 L1441,887.606182 Z" id="Fill-4"></path>
        </g>
    </g>
</svg>