<svg id="Laag_1" data-name="Laag 1" xmlns="http://www.w3.org/2000/svg" xmlns:xlink="http://www.w3.org/1999/xlink" viewBox="0 0 309.05 357.31"><defs><style>.cls-1{fill:url(#Naamloos_verloop);}.cls-2{fill:url(#Naamloos_verloop_2);}.cls-3{fill:#a3d4c5;}.cls-4{fill:#f1e746;}.cls-5{fill:#b8d2e9;}.cls-6{fill:#f19f88;}.cls-7{fill:url(#Naamloos_verloop_3);}.cls-8{fill:url(#Naamloos_verloop_4);}.cls-9{fill:#f8db4f;}.cls-10{fill:#efefef;}.cls-11{fill:#cfd3d3;}.cls-12{fill:#fff;}</style><linearGradient id="Naamloos_verloop" x1="48.8" y1="225.91" x2="284.5" y2="252.06" gradientTransform="matrix(1, 0, 0, -1, -0.51, 357.89)" gradientUnits="userSpaceOnUse"><stop offset="0.02" stop-color="#f4f4f4"/><stop offset="0.94" stop-color="#cecece"/></linearGradient><linearGradient id="Naamloos_verloop_2" x1="80.67" y1="289.38" x2="262.88" y2="379.9" gradientTransform="matrix(1, 0, 0, -1, 0, 357.89)" gradientUnits="userSpaceOnUse"><stop offset="0.03" stop-color="#f7f7f7"/><stop offset="0.25" stop-color="#f2f2f2"/><stop offset="1" stop-color="#e5e5e5"/></linearGradient><linearGradient id="Naamloos_verloop_3" x1="141.18" y1="68.51" x2="218.58" y2="-96.17" gradientTransform="matrix(1, 0, 0, -1, -0.51, 357.89)" gradientUnits="userSpaceOnUse"><stop offset="0.03" stop-color="#bfbfbf"/><stop offset="0.11" stop-color="#858585"/><stop offset="0.19" stop-color="#4c4c4c"/><stop offset="0.25" stop-color="#292929"/><stop offset="0.28" stop-color="#1c1c1c"/></linearGradient><linearGradient id="Naamloos_verloop_4" x1="45.46" y1="84.23" x2="279.78" y2="84.23" gradientTransform="matrix(1, 0, 0, -1, -0.51, 357.89)" gradientUnits="userSpaceOnUse"><stop offset="0.05" stop-color="#eaeaea"/><stop offset="0.17" stop-color="#d9d9d9"/><stop offset="0.41" stop-color="#acacac"/><stop offset="0.75" stop-color="#636363"/><stop offset="0.83" stop-color="#4f4f4f"/></linearGradient></defs><title>bot-google</title><g id="googlehome"><path class="cls-1" d="M264,28H60.49L46.86,208.41h0s25.56,6.7,115.72,6.7,114.78-6.69,114.79-6.7h0Z" transform="translate(0 0)"/><ellipse class="cls-2" cx="162.26" cy="27.98" rx="101.73" ry="27.98"/><ellipse class="cls-3" cx="140.07" cy="27.72" rx="5.31" ry="1.88"/><ellipse class="cls-4" cx="166.61" cy="35.77" rx="5.31" ry="1.88"/><ellipse class="cls-5" cx="166.61" cy="20.19" rx="5.31" ry="1.88"/><ellipse class="cls-6" cx="193.15" cy="27.72" rx="5.31" ry="1.88"/><path class="cls-7" d="M163.07,338.9c-37.48,0-70.82-1.68-92.07-4.29a78.73,78.73,0,0,0,13.61,11.77c5.76,3.88,12.77,7.3,20.45,8.3,20.13,2.63,57.05,2.63,57.05,2.63s37.49,0,57.06-2.63c8-1.08,15.37-4.8,21.29-8.92A80.11,80.11,0,0,0,253,334.87C231.66,337.33,199.3,338.9,163.07,338.9Z" transform="translate(0 0)"/><path class="cls-8" d="M277.37,208.41h0s-24.63,6.7-114.79,6.7-115.71-6.69-115.72-6.7h0s-9.65,75.7,14.48,114.17a56.05,56.05,0,0,0,4,5.66,49.43,49.43,0,0,0,3.48,3.9s.77,1,2.15,2.47c21.25,2.61,54.59,4.29,92.07,4.29,36.23,0,68.59-1.57,89.9-4,1.56-1.66,2.4-2.73,2.4-2.73a41,41,0,0,0,2.87-3.13,58,58,0,0,0,4.83-6.72C287,283.74,277.37,208.41,277.37,208.41Z" transform="translate(0 0)"/></g><g id="cloud-2"><path class="cls-9" d="M135.85,195.56H10.68a5.89,5.89,0,0,0-5.87,5.87V233.5a5.89,5.89,0,0,0,5.87,5.87v10.79l17.46-10.79H135.85a5.89,5.89,0,0,0,5.87-5.87V201.43A5.89,5.89,0,0,0,135.85,195.56Z" transform="translate(0 0)"/><circle class="cls-10" cx="21.62" cy="219.64" r="7.86"/><circle cx="19.35" cy="220.25" r="0.96"/><circle cx="23.77" cy="220.25" r="0.96"/><path d="M27.36,220.14a3.31,3.31,0,0,0-1-2.29,3.43,3.43,0,0,0-2.35-.93H23.7v-1.1a.68.68,0,1,0-.89-.36.7.7,0,0,0,.36.36v1.1h-3v-1.1a.68.68,0,1,0-.89-.36.7.7,0,0,0,.36.36v1.1h-.41a3.35,3.35,0,0,0-3.33,3.37v.07a3.29,3.29,0,0,0,1,2.29,3.35,3.35,0,0,0,2.16.93v.85a.3.3,0,0,0,.17.28h.15a.26.26,0,0,0,.17-.05l1.62-1.1H24a3.42,3.42,0,0,0,3.35-3.42ZM26,222.23a2.78,2.78,0,0,1-2,.82H21.15a.39.39,0,0,0-.23.07l-1.3.89v-1h-.35a2.85,2.85,0,0,1-2.85-2.7,2.8,2.8,0,0,1,2.71-2.89H24a2.85,2.85,0,0,1,2.85,2.7A2.78,2.78,0,0,1,26,222.23Z" transform="translate(0 0)"/></g><g id="cloud-react"><path class="cls-11" d="M177.21,154.64H303.15a5.92,5.92,0,0,1,5.9,5.9v32.27a5.93,5.93,0,0,1-5.9,5.91v10.86l-17.57-10.86H177.21a5.93,5.93,0,0,1-5.9-5.91V160.54A5.92,5.92,0,0,1,177.21,154.64Z" transform="translate(0 0)"/><circle cx="194.74" cy="176.66" r="2.97"/><path d="M194.74,180.72a5.94,5.94,0,0,0-5.78,4.59,8.69,8.69,0,0,0,11.55,0A5.92,5.92,0,0,0,194.74,180.72Z" transform="translate(0 0)"/><path class="cls-12" d="M194.74,169.36a9.73,9.73,0,0,0-7,16.53,10.79,10.79,0,0,0,1,.91,9.72,9.72,0,0,0,11.86,0,10.79,10.79,0,0,0,1-.91,9.72,9.72,0,0,0-6.95-16.53Zm-3,7.57a3,3,0,1,1,3,3,3,3,0,0,1-3-3Zm3,10.85a8.68,8.68,0,0,1-5.78-2.2,5.93,5.93,0,0,1,11.55,0,8.65,8.65,0,0,1-5.77,2.2Z" transform="translate(0 0)"/></g><g id="cloud-1"><path class="cls-9" d="M145.78,106.07H6.49A6.54,6.54,0,0,0,0,112.6v35.68a6.54,6.54,0,0,0,6.49,6.53v12l19.42-12H145.78a6.55,6.55,0,0,0,6.53-6.53V112.6A6.55,6.55,0,0,0,145.78,106.07Z" transform="translate(0 0)"/><circle class="cls-10" cx="14.12" cy="132.55" r="7.86"/><circle cx="11.85" cy="133.16" r="0.96"/><circle cx="16.27" cy="133.16" r="0.96"/><path d="M19.86,133.05a3.31,3.31,0,0,0-1-2.29,3.43,3.43,0,0,0-2.35-.93h-.3v-1.1a.65.65,0,0,0,.4-.62.68.68,0,1,0-.94.62v1.1h-3v-1.1a.65.65,0,0,0,.4-.62.68.68,0,1,0-.94.62v1.1h-.4a3.34,3.34,0,0,0-3.34,3.36v.08a3.29,3.29,0,0,0,1,2.29,3.37,3.37,0,0,0,2.16.93v.85a.33.33,0,0,0,.17.28h.15a.37.37,0,0,0,.18-.05l1.61-1.1h2.83a3.35,3.35,0,0,0,3.33-3.37V133Zm-1.37,2.09a2.78,2.78,0,0,1-2,.82H13.65a.39.39,0,0,0-.23.07l-1.3.89v-1h-.35a2.8,2.8,0,1,1,0-5.59h4.72a2.85,2.85,0,0,1,2.85,2.7A2.72,2.72,0,0,1,18.49,135.14Z" transform="translate(0 0)"/></g><path d="M35.33,135.31,34.17,131,33,135.31a6.1,6.1,0,0,1-.22.7.84.84,0,0,1-.28.38.75.75,0,0,1-.53.17.82.82,0,0,1-.44-.1.69.69,0,0,1-.28-.28,2,2,0,0,1-.18-.44c0-.16-.08-.32-.12-.46l-1.19-4.82a2.92,2.92,0,0,1-.11-.64.63.63,0,0,1,.2-.47.65.65,0,0,1,.48-.19.54.54,0,0,1,.53.25,3,3,0,0,1,.24.74l.94,4.18,1.05-3.91a6.55,6.55,0,0,1,.21-.68.93.93,0,0,1,.3-.41.9.9,0,0,1,.57-.17.81.81,0,0,1,.57.18.92.92,0,0,1,.28.39q.07.21.21.69l1.06,3.91.94-4.18a3.67,3.67,0,0,1,.13-.51.72.72,0,0,1,.21-.33.58.58,0,0,1,.43-.15.65.65,0,0,1,.48.19.62.62,0,0,1,.2.47,3.24,3.24,0,0,1-.11.64l-1.19,4.82c-.08.32-.15.56-.2.71a1,1,0,0,1-.28.4,1,1,0,0,1-1.07,0,.84.84,0,0,1-.28-.38C35.5,135.88,35.42,135.65,35.33,135.31Z" transform="translate(0 0)"/><path d="M40.85,130v2a3,3,0,0,1,.5-.47,1.72,1.72,0,0,1,.53-.25,2.18,2.18,0,0,1,.63-.09,1.77,1.77,0,0,1,.9.22A1.48,1.48,0,0,1,44,132a1.58,1.58,0,0,1,.19.54,4.4,4.4,0,0,1,.05.68v2.55a.91.91,0,0,1-.18.61.66.66,0,0,1-.49.2q-.66,0-.66-.81V133.5a2,2,0,0,0-.19-1,.76.76,0,0,0-.72-.35,1,1,0,0,0-.64.21,1.14,1.14,0,0,0-.43.55,3.58,3.58,0,0,0-.11,1.06v1.76a.86.86,0,0,1-.18.6.59.59,0,0,1-.49.21q-.66,0-.66-.81V130a1,1,0,0,1,.17-.61.63.63,0,0,1,.49-.2.62.62,0,0,1,.49.2A.91.91,0,0,1,40.85,130Z" transform="translate(0 0)"/><path d="M49,135.81a3.94,3.94,0,0,1-.94.56,2.53,2.53,0,0,1-1,.19,2,2,0,0,1-.9-.2,1.52,1.52,0,0,1-.6-.55,1.42,1.42,0,0,1-.21-.75,1.33,1.33,0,0,1,.35-.93,1.73,1.73,0,0,1,1-.52c.08,0,.29-.07.63-.13l.86-.19.78-.21a1.45,1.45,0,0,0-.21-.77,1,1,0,0,0-.78-.25,1.73,1.73,0,0,0-.77.14,1.38,1.38,0,0,0-.44.43,4.23,4.23,0,0,1-.25.37.43.43,0,0,1-.33.09.6.6,0,0,1-.39-.14.47.47,0,0,1-.16-.37,1.13,1.13,0,0,1,.25-.69,1.71,1.71,0,0,1,.77-.54,3.41,3.41,0,0,1,1.32-.22,3.71,3.71,0,0,1,1.38.21A1.28,1.28,0,0,1,50,132a2.82,2.82,0,0,1,.21,1.19V134c0,.22,0,.46,0,.73a2.86,2.86,0,0,0,.12.79,2.14,2.14,0,0,1,.13.52.48.48,0,0,1-.2.37.59.59,0,0,1-.43.17.59.59,0,0,1-.41-.19A3.24,3.24,0,0,1,49,135.81Zm-.09-1.93a7.29,7.29,0,0,1-.85.23l-.78.17a1.26,1.26,0,0,0-.41.22.58.58,0,0,0-.19.46.68.68,0,0,0,.23.52.84.84,0,0,0,.6.21,1.52,1.52,0,0,0,.73-.18,1.17,1.17,0,0,0,.49-.44,2.07,2.07,0,0,0,.18-1Z" transform="translate(0 0)"/><path d="M51.35,131.26h.15v-.8c0-.22,0-.38,0-.51a.75.75,0,0,1,.09-.31.67.67,0,0,1,.56-.31.63.63,0,0,1,.45.19.58.58,0,0,1,.18.31,3.45,3.45,0,0,1,0,.52v.91h.49a.6.6,0,0,1,.43.13.45.45,0,0,1,.15.35.38.38,0,0,1-.21.37,1.25,1.25,0,0,1-.61.11h-.25v2.45a2.88,2.88,0,0,0,0,.48.48.48,0,0,0,.11.28.41.41,0,0,0,.31.1,1.45,1.45,0,0,0,.32,0,1.45,1.45,0,0,1,.31,0,.37.37,0,0,1,.29.13.41.41,0,0,1,.13.32.52.52,0,0,1-.35.49,2.42,2.42,0,0,1-1,.17,1.76,1.76,0,0,1-.95-.21,1,1,0,0,1-.42-.58,3.82,3.82,0,0,1-.1-1v-2.56h-.17a.58.58,0,0,1-.44-.14.44.44,0,0,1-.16-.34.46.46,0,0,1,.16-.35A.7.7,0,0,1,51.35,131.26Z" transform="translate(0 0)"/><path d="M58,130.52a.72.72,0,0,1-.48-.17.6.6,0,0,1-.2-.48.62.62,0,0,1,.2-.47.72.72,0,0,1,.48-.18.67.67,0,0,1,.45.16.6.6,0,0,1,.2.49.62.62,0,0,1-.19.48A.71.71,0,0,1,58,130.52Zm.65,1.38v3.85a.86.86,0,0,1-.19.61.66.66,0,0,1-1,0,.9.9,0,0,1-.18-.6v-3.81a.88.88,0,0,1,.18-.6.66.66,0,0,1,.48-.2.63.63,0,0,1,.48.2A.78.78,0,0,1,58.65,131.9Z" transform="translate(0 0)"/><path d="M64.32,134.82a1.67,1.67,0,0,1-.26.94,1.65,1.65,0,0,1-.8.6,3.66,3.66,0,0,1-1.28.2,3.11,3.11,0,0,1-1.23-.22,1.71,1.71,0,0,1-.75-.55,1.07,1.07,0,0,1-.25-.66.51.51,0,0,1,.16-.37.52.52,0,0,1,.4-.16.46.46,0,0,1,.32.1,1.45,1.45,0,0,1,.21.29,1.49,1.49,0,0,0,.49.53,1.45,1.45,0,0,0,.78.18,1.12,1.12,0,0,0,.66-.18.5.5,0,0,0,.25-.41.55.55,0,0,0-.26-.51,3.3,3.3,0,0,0-.88-.31,6.44,6.44,0,0,1-1.12-.36,1.79,1.79,0,0,1-.69-.49,1.17,1.17,0,0,1-.26-.76,1.34,1.34,0,0,1,.24-.76,1.79,1.79,0,0,1,.71-.57,2.7,2.7,0,0,1,1.12-.21,3.71,3.71,0,0,1,.93.11,2.21,2.21,0,0,1,.69.29,1.35,1.35,0,0,1,.42.4.73.73,0,0,1,.14.43.48.48,0,0,1-.15.37.6.6,0,0,1-.44.15.55.55,0,0,1-.35-.12,2.32,2.32,0,0,1-.32-.35,1.32,1.32,0,0,0-.36-.31,1.11,1.11,0,0,0-.56-.12,1,1,0,0,0-.6.16.44.44,0,0,0-.24.38.41.41,0,0,0,.18.34,1.47,1.47,0,0,0,.47.23l.82.21a4.43,4.43,0,0,1,1,.36,1.65,1.65,0,0,1,.59.5A1,1,0,0,1,64.32,134.82Z" transform="translate(0 0)"/><path d="M70.09,135.77v-4.44a4.1,4.1,0,0,1-1.67.95.5.5,0,0,1-.37-.16.57.57,0,0,1-.16-.38.45.45,0,0,1,.16-.37,3,3,0,0,1,.55-.3,4.1,4.1,0,0,0,1-.59,3.73,3.73,0,0,0,.62-.69,4.94,4.94,0,0,1,.36-.46.41.41,0,0,1,.31-.09.5.5,0,0,1,.42.2.9.9,0,0,1,.15.55v5.59c0,.65-.22,1-.67,1a.59.59,0,0,1-.47-.2A.85.85,0,0,1,70.09,135.77Z" transform="translate(0 0)"/><path d="M78.67,132.93a9.2,9.2,0,0,1-.09,1.38,3.46,3.46,0,0,1-.36,1,2.45,2.45,0,0,1-.86.89,2.29,2.29,0,0,1-1.18.31,2.26,2.26,0,0,1-1.33-.42A2.59,2.59,0,0,1,74,135a4,4,0,0,1-.22-.9,6.93,6.93,0,0,1-.08-1.06,10.68,10.68,0,0,1,.08-1.33,4.26,4.26,0,0,1,.25-1,2.27,2.27,0,0,1,.83-1.07,2.3,2.3,0,0,1,1.32-.37,2.45,2.45,0,0,1,.91.16,2.16,2.16,0,0,1,.72.48,2.79,2.79,0,0,1,.52.78A5.58,5.58,0,0,1,78.67,132.93Zm-1.33-.1a8.27,8.27,0,0,0-.11-1.46,1.76,1.76,0,0,0-.36-.86.91.91,0,0,0-.71-.29.9.9,0,0,0-.89.65,5.85,5.85,0,0,0-.25,2,8.83,8.83,0,0,0,.1,1.5,1.94,1.94,0,0,0,.37.89.84.84,0,0,0,.68.3.86.86,0,0,0,.71-.31,1.87,1.87,0,0,0,.35-.89A8.91,8.91,0,0,0,77.34,132.83Z" transform="translate(0 0)"/><path d="M82.41,131.26h.15v-.8c0-.22,0-.38,0-.51a.76.76,0,0,1,.1-.31.58.58,0,0,1,.22-.22.63.63,0,0,1,.33-.09.65.65,0,0,1,.46.19.56.56,0,0,1,.17.31,2.37,2.37,0,0,1,0,.52v.91h.49a.61.61,0,0,1,.43.13.45.45,0,0,1,.15.35.38.38,0,0,1-.21.37,1.31,1.31,0,0,1-.61.11h-.25v2.45c0,.21,0,.37,0,.48a.48.48,0,0,0,.12.28.4.4,0,0,0,.31.1,1.52,1.52,0,0,0,.32,0,1.38,1.38,0,0,1,.31,0,.39.39,0,0,1,.29.13.41.41,0,0,1,.13.32.54.54,0,0,1-.35.49,2.45,2.45,0,0,1-1,.17,1.74,1.74,0,0,1-1-.21.92.92,0,0,1-.42-.58,3.82,3.82,0,0,1-.1-1v-2.56h-.18a.6.6,0,0,1-.44-.14.46.46,0,0,1,0-.69A.68.68,0,0,1,82.41,131.26Z" transform="translate(0 0)"/><path d="M86.55,130.52a.74.74,0,0,1-.48-.17.68.68,0,0,1,0-.95.67.67,0,0,1,.47-.18.7.7,0,0,1,.46.16.63.63,0,0,1,.2.49.63.63,0,0,1-.2.48A.69.69,0,0,1,86.55,130.52Zm.66,1.38v3.85a.86.86,0,0,1-.19.61.66.66,0,0,1-.48.2.6.6,0,0,1-.48-.21.9.9,0,0,1-.18-.6v-3.81a.88.88,0,0,1,.18-.6.63.63,0,0,1,.48-.2.66.66,0,0,1,.48.2A.78.78,0,0,1,87.21,131.9Z" transform="translate(0 0)"/><path d="M93,134v1.77a.9.9,0,0,1-.19.63.64.64,0,0,1-.5.21.61.61,0,0,1-.49-.21.9.9,0,0,1-.19-.63V133.6a5.21,5.21,0,0,0,0-.78.83.83,0,0,0-.18-.46.59.59,0,0,0-.48-.18.85.85,0,0,0-.86.45,3.14,3.14,0,0,0-.21,1.29v1.8a.9.9,0,0,1-.19.63.62.62,0,0,1-.49.21.66.66,0,0,1-.5-.21.9.9,0,0,1-.19-.63v-3.81a.86.86,0,0,1,.17-.57.6.6,0,0,1,.46-.2.58.58,0,0,1,.45.19.65.65,0,0,1,.19.5V132a2.29,2.29,0,0,1,.74-.61,2,2,0,0,1,.88-.2,1.79,1.79,0,0,1,.86.2,1.67,1.67,0,0,1,.6.61,2.14,2.14,0,0,1,.72-.61,2,2,0,0,1,1.8,0A1.34,1.34,0,0,1,96,132a2.9,2.9,0,0,1,.17,1.14v2.6a.9.9,0,0,1-.19.63.64.64,0,0,1-.5.21.66.66,0,0,1-.5-.21.9.9,0,0,1-.19-.63v-2.24a4.25,4.25,0,0,0,0-.69.75.75,0,0,0-.2-.43.6.6,0,0,0-.48-.18.83.83,0,0,0-.5.16,1,1,0,0,0-.37.42A3.24,3.24,0,0,0,93,134Z" transform="translate(0 0)"/><path d="M101.15,134.18h-2.6a1.71,1.71,0,0,0,.18.8,1.23,1.23,0,0,0,1.13.7,1.44,1.44,0,0,0,.43-.06,1.65,1.65,0,0,0,.39-.17c.12-.08.23-.17.34-.26s.24-.21.4-.37a.45.45,0,0,1,.3-.09.52.52,0,0,1,.33.11.43.43,0,0,1,.13.32.83.83,0,0,1-.15.42,1.64,1.64,0,0,1-.42.47,2.69,2.69,0,0,1-.72.37,3.33,3.33,0,0,1-1,.14,2.64,2.64,0,0,1-2-.73,2.71,2.71,0,0,1-.71-2,3.2,3.2,0,0,1,.17-1.09,2.5,2.5,0,0,1,.51-.87,2.23,2.23,0,0,1,.83-.55,3,3,0,0,1,1.1-.2,2.59,2.59,0,0,1,1.34.33,2.28,2.28,0,0,1,.84.85,2.33,2.33,0,0,1,.27,1.07c0,.33-.09.55-.28.65A1.85,1.85,0,0,1,101.15,134.18Zm-2.6-.76H101a1.63,1.63,0,0,0-.36-1,1.12,1.12,0,0,0-.85-.34,1,1,0,0,0-.81.34A1.64,1.64,0,0,0,98.55,133.42Z" transform="translate(0 0)"/><path d="M107.67,134.82a1.6,1.6,0,0,1-.27.94,1.63,1.63,0,0,1-.79.6,3.7,3.7,0,0,1-1.28.2,3,3,0,0,1-1.23-.22,1.74,1.74,0,0,1-.76-.55,1.12,1.12,0,0,1-.24-.66.5.5,0,0,1,.15-.37.54.54,0,0,1,.4-.16.44.44,0,0,1,.32.1,1.16,1.16,0,0,1,.22.29,1.4,1.4,0,0,0,.49.53,1.45,1.45,0,0,0,.78.18,1.11,1.11,0,0,0,.65-.18.52.52,0,0,0,.26-.41.56.56,0,0,0-.27-.51,3.2,3.2,0,0,0-.87-.31,6.17,6.17,0,0,1-1.12-.36,1.79,1.79,0,0,1-.69-.49,1.12,1.12,0,0,1-.26-.76,1.34,1.34,0,0,1,.24-.76,1.76,1.76,0,0,1,.7-.57,2.75,2.75,0,0,1,1.13-.21,3.83,3.83,0,0,1,.93.11,2.43,2.43,0,0,1,.69.29,1.47,1.47,0,0,1,.42.4.81.81,0,0,1,.14.43.48.48,0,0,1-.15.37.62.62,0,0,1-.44.15.53.53,0,0,1-.35-.12,1.9,1.9,0,0,1-.33-.35,1.19,1.19,0,0,0-.36-.31,1.07,1.07,0,0,0-.55-.12,1,1,0,0,0-.6.16.44.44,0,0,0-.24.38.42.42,0,0,0,.17.34,1.53,1.53,0,0,0,.48.23l.82.21a4.33,4.33,0,0,1,1,.36,1.78,1.78,0,0,1,.6.5A1.11,1.11,0,0,1,107.67,134.82Z" transform="translate(0 0)"/><path d="M112.84,135.29h2.55a1,1,0,0,1,.58.15.57.57,0,0,1,0,.83.65.65,0,0,1-.48.17h-3.59a.82.82,0,0,1-.58-.2.69.69,0,0,1-.2-.48,1.12,1.12,0,0,1,.13-.46,1.74,1.74,0,0,1,.29-.46c.43-.45.82-.84,1.17-1.16a7.63,7.63,0,0,1,.75-.63,4.42,4.42,0,0,0,.67-.57,2.32,2.32,0,0,0,.4-.58,1.45,1.45,0,0,0,.14-.59,1,1,0,0,0-.15-.56,1,1,0,0,0-.4-.38,1.11,1.11,0,0,0-.56-.14,1.15,1.15,0,0,0-1,.56,2.17,2.17,0,0,0-.16.4,1.76,1.76,0,0,1-.26.5.52.52,0,0,1-.42.18.54.54,0,0,1-.41-.16.6.6,0,0,1-.16-.44,1.8,1.8,0,0,1,.15-.7,2,2,0,0,1,.45-.67,2.25,2.25,0,0,1,.76-.48,3,3,0,0,1,1.09-.18,3.24,3.24,0,0,1,1.27.23,1.95,1.95,0,0,1,1,1.06,1.93,1.93,0,0,1,.15.75,2.09,2.09,0,0,1-.3,1.1,3.48,3.48,0,0,1-.62.78c-.2.18-.55.48-1,.88a7.82,7.82,0,0,0-1,.93A2.22,2.22,0,0,0,112.84,135.29Z" transform="translate(0 0)"/><path d="M117,131.2a1.76,1.76,0,0,1,.3-.94,2.31,2.31,0,0,1,.87-.79,2.7,2.7,0,0,1,1.33-.31,2.91,2.91,0,0,1,1.25.26,2.1,2.1,0,0,1,.84.71,1.81,1.81,0,0,1,.29,1,1.46,1.46,0,0,1-.17.73,2.36,2.36,0,0,1-.4.54c-.15.15-.43.4-.83.76a2.1,2.1,0,0,0-.26.27.69.69,0,0,0-.15.21.64.64,0,0,0-.08.19c0,.06,0,.17-.08.33a.55.55,0,0,1-.58.51.61.61,0,0,1-.43-.17.66.66,0,0,1-.17-.49,1.73,1.73,0,0,1,.13-.71,1.69,1.69,0,0,1,.33-.53q.21-.23.57-.54c.21-.18.36-.32.45-.41a1.39,1.39,0,0,0,.23-.31.69.69,0,0,0,.1-.37.88.88,0,0,0-.29-.66,1,1,0,0,0-.75-.27,1,1,0,0,0-.79.27,2.21,2.21,0,0,0-.43.8c-.11.37-.32.55-.63.55a.6.6,0,0,1-.46-.19A.58.58,0,0,1,117,131.2Zm2.38,5.35a.76.76,0,0,1-.52-.19.75.75,0,0,1,0-1.06.73.73,0,0,1,1.25.52.67.67,0,0,1-.22.54A.75.75,0,0,1,119.37,136.55Z" transform="translate(0 0)"/><path d="M217.93,182.73H221a1.14,1.14,0,0,1,.7.19.61.61,0,0,1,.24.51.69.69,0,0,1-.19.49.78.78,0,0,1-.58.2h-4.31a1,1,0,0,1-.69-.25.78.78,0,0,1-.24-.57,1.38,1.38,0,0,1,.16-.56,2.17,2.17,0,0,1,.34-.55q.78-.81,1.41-1.38a8.75,8.75,0,0,1,.89-.76,5.76,5.76,0,0,0,.8-.68,2.59,2.59,0,0,0,.49-.71,1.67,1.67,0,0,0,.17-.7,1.24,1.24,0,0,0-.18-.67,1.21,1.21,0,0,0-.49-.46,1.41,1.41,0,0,0-1.88.51,2.31,2.31,0,0,0-.19.48,2.08,2.08,0,0,1-.31.6.64.64,0,0,1-.51.21.66.66,0,0,1-.49-.19.72.72,0,0,1-.19-.53,2.19,2.19,0,0,1,.18-.84,2.36,2.36,0,0,1,.54-.8,2.73,2.73,0,0,1,.92-.58,3.65,3.65,0,0,1,1.3-.22,3.94,3.94,0,0,1,1.53.28,2.45,2.45,0,0,1,.72.52,2.58,2.58,0,0,1,.48.76,2.52,2.52,0,0,1-.19,2.21,3.91,3.91,0,0,1-.73.93c-.25.23-.67.58-1.26,1.06a9.73,9.73,0,0,0-1.21,1.12A4.65,4.65,0,0,0,217.93,182.73Z" transform="translate(0 0)"/><path d="M229,179.9a9.78,9.78,0,0,1-.12,1.65,3.91,3.91,0,0,1-.43,1.26,2.94,2.94,0,0,1-1,1.07,2.84,2.84,0,0,1-3-.13,3.08,3.08,0,0,1-1.06-1.4,5.4,5.4,0,0,1-.27-1.07A10.22,10.22,0,0,1,223,180a12.65,12.65,0,0,1,.09-1.59,5.33,5.33,0,0,1,.29-1.22,2.87,2.87,0,0,1,1-1.29,2.78,2.78,0,0,1,1.57-.44,3,3,0,0,1,1.1.2,2.49,2.49,0,0,1,.86.57,3.22,3.22,0,0,1,.63.94A6.61,6.61,0,0,1,229,179.9Zm-1.61-.11a9.44,9.44,0,0,0-.13-1.76,2.14,2.14,0,0,0-.43-1,1.06,1.06,0,0,0-.84-.35,1.09,1.09,0,0,0-1.08.78,7.13,7.13,0,0,0-.3,2.4,10,10,0,0,0,.13,1.81,2.22,2.22,0,0,0,.43,1.06,1,1,0,0,0,.83.36,1,1,0,0,0,.84-.37,2.24,2.24,0,0,0,.43-1.08A11.08,11.08,0,0,0,227.34,179.79Z" transform="translate(0 0)"/><path d="M42.38,221.81v1.37a1.72,1.72,0,0,1-.05.44.69.69,0,0,1-.2.29,2.37,2.37,0,0,1-.37.26,6.1,6.1,0,0,1-1.25.51,5,5,0,0,1-1.31.16,4.45,4.45,0,0,1-1.5-.25,3.25,3.25,0,0,1-1.16-.74,3.18,3.18,0,0,1-.73-1.17,4.75,4.75,0,0,1,0-3.07,3.18,3.18,0,0,1,.73-1.18,3.25,3.25,0,0,1,1.18-.74,4.5,4.5,0,0,1,1.57-.25,3.87,3.87,0,0,1,1.28.19,2.74,2.74,0,0,1,.9.49,2.17,2.17,0,0,1,.53.62,1.3,1.3,0,0,1,.17.58.61.61,0,0,1-.2.46.7.7,0,0,1-.49.2.67.67,0,0,1-.3-.08.76.76,0,0,1-.24-.2,7.8,7.8,0,0,0-.45-.64,1.61,1.61,0,0,0-.5-.36,1.9,1.9,0,0,0-.81-.14,2.19,2.19,0,0,0-.9.17,1.82,1.82,0,0,0-.67.5,2.24,2.24,0,0,0-.43.81A3.53,3.53,0,0,0,37,221.1,2.88,2.88,0,0,0,37.6,223a2,2,0,0,0,1.61.68,3.63,3.63,0,0,0,.95-.13,5.17,5.17,0,0,0,.89-.38v-1.16H39.93a1.13,1.13,0,0,1-.61-.13.43.43,0,0,1-.21-.41.54.54,0,0,1,.17-.4.72.72,0,0,1,.47-.15H41.4a2.44,2.44,0,0,1,.51,0,.6.6,0,0,1,.34.24A1,1,0,0,1,42.38,221.81Z" transform="translate(0 0)"/><path d="M45,222.92V224a.86.86,0,0,1-.19.61.64.64,0,0,1-.48.2.59.59,0,0,1-.47-.21.82.82,0,0,1-.19-.6v-3.71c0-.6.22-.9.65-.9a.55.55,0,0,1,.48.21,1.15,1.15,0,0,1,.16.62,2.35,2.35,0,0,1,.49-.62,1,1,0,0,1,.67-.21,1.75,1.75,0,0,1,.82.21.63.63,0,0,1,.39.56.51.51,0,0,1-.17.4.5.5,0,0,1-.36.16,1.55,1.55,0,0,1-.35-.09,1.71,1.71,0,0,0-.5-.09.76.76,0,0,0-.48.15,1,1,0,0,0-.29.46,4,4,0,0,0-.14.72C45,222.18,45,222.52,45,222.92Z" transform="translate(0 0)"/><path d="M51.52,222.46H48.91a1.85,1.85,0,0,0,.19.8,1.25,1.25,0,0,0,.47.52,1.22,1.22,0,0,0,.65.18,1.51,1.51,0,0,0,.44-.06,1.46,1.46,0,0,0,.38-.18,2.3,2.3,0,0,0,.34-.25l.41-.37a.44.44,0,0,1,.29-.09.53.53,0,0,1,.34.11.42.42,0,0,1,.12.32.9.9,0,0,1-.14.42,1.53,1.53,0,0,1-.43.46,2.27,2.27,0,0,1-.71.37,3,3,0,0,1-1,.15,2.67,2.67,0,0,1-2-.73,2.75,2.75,0,0,1-.71-2,3.3,3.3,0,0,1,.18-1.1,2.4,2.4,0,0,1,.51-.86,2.22,2.22,0,0,1,.83-.56,2.94,2.94,0,0,1,1.09-.19,2.56,2.56,0,0,1,1.34.33,2.08,2.08,0,0,1,.84.85,2.22,2.22,0,0,1,.28,1.07.67.67,0,0,1-.29.65A1.77,1.77,0,0,1,51.52,222.46Zm-2.61-.76h2.42a1.54,1.54,0,0,0-.37-1,1.18,1.18,0,0,0-1.66,0A1.77,1.77,0,0,0,48.91,221.7Z" transform="translate(0 0)"/><path d="M57.11,224.09a3.89,3.89,0,0,1-.93.56,2.54,2.54,0,0,1-1,.19,2,2,0,0,1-.9-.2,1.5,1.5,0,0,1-.59-.55,1.33,1.33,0,0,1-.21-.75,1.36,1.36,0,0,1,.34-.94,1.72,1.72,0,0,1,1-.51l.63-.14c.34-.06.63-.13.87-.18l.77-.21a1.35,1.35,0,0,0-.21-.78,1,1,0,0,0-.78-.24,1.53,1.53,0,0,0-.76.14,1.17,1.17,0,0,0-.44.42,4.26,4.26,0,0,1-.26.38.42.42,0,0,1-.32.09.56.56,0,0,1-.39-.15.46.46,0,0,1-.17-.36,1.17,1.17,0,0,1,.25-.69,1.8,1.8,0,0,1,.78-.54,3.35,3.35,0,0,1,1.31-.22,3.73,3.73,0,0,1,1.39.21,1.3,1.3,0,0,1,.71.65,3.06,3.06,0,0,1,.2,1.2v.79c0,.22,0,.46,0,.73a2.45,2.45,0,0,0,.13.78,2.66,2.66,0,0,1,.12.53.48.48,0,0,1-.19.37.67.67,0,0,1-.44.17.57.57,0,0,1-.4-.19A2.8,2.8,0,0,1,57.11,224.09ZM57,222.16a6.77,6.77,0,0,1-.85.23l-.77.17a1.1,1.1,0,0,0-.41.22.57.57,0,0,0-.2.46.68.68,0,0,0,.23.51.89.89,0,0,0,.6.22,1.49,1.49,0,0,0,.73-.18,1.06,1.06,0,0,0,.49-.44,2.09,2.09,0,0,0,.18-1Z" transform="translate(0 0)"/><path d="M59.51,219.54h.15v-.8c0-.22,0-.39,0-.51a.71.71,0,0,1,.1-.31.61.61,0,0,1,.22-.23.73.73,0,0,1,.33-.08.65.65,0,0,1,.46.19.53.53,0,0,1,.17.31,2.32,2.32,0,0,1,0,.52v.91h.49a.61.61,0,0,1,.43.13.45.45,0,0,1,.15.35.38.38,0,0,1-.21.37,1.45,1.45,0,0,1-.61.11H61V223c0,.21,0,.37,0,.48a.48.48,0,0,0,.12.27.4.4,0,0,0,.31.11,1.52,1.52,0,0,0,.32,0,1.38,1.38,0,0,1,.31,0,.39.39,0,0,1,.29.13.41.41,0,0,1,.13.32.55.55,0,0,1-.35.49,2.45,2.45,0,0,1-1,.17,1.74,1.74,0,0,1-1-.21.92.92,0,0,1-.42-.58,3.82,3.82,0,0,1-.1-1V220.5h-.18a.64.64,0,0,1-.44-.14.46.46,0,0,1,0-.69A.68.68,0,0,1,59.51,219.54Z" transform="translate(0 0)"/><path d="M63.42,221.62l-.16-2.34c0-.46,0-.78,0-1a.93.93,0,0,1,.21-.64.73.73,0,0,1,.56-.22.56.56,0,0,1,.56.29,2,2,0,0,1,.14.84c0,.21,0,.43,0,.65l-.21,2.41a2.31,2.31,0,0,1-.15.66.38.38,0,0,1-.37.23.38.38,0,0,1-.37-.23A2.13,2.13,0,0,1,63.42,221.62Zm.54,3.21a.76.76,0,0,1-.52-.19.67.67,0,0,1-.22-.54.72.72,0,0,1,.21-.52.7.7,0,0,1,.52-.21.72.72,0,0,1,.52.21.69.69,0,0,1,.22.52.65.65,0,0,1-.22.53A.76.76,0,0,1,64,224.83Z" transform="translate(0 0)"/><path d="M73.55,218.76H72V224a1,1,0,0,1-.2.66.67.67,0,0,1-.52.22.68.68,0,0,1-.53-.22,1,1,0,0,1-.2-.66v-5.2H68.94a.79.79,0,0,1-.55-.17.55.55,0,0,1-.18-.43.56.56,0,0,1,.18-.44.82.82,0,0,1,.55-.16h4.61a.78.78,0,0,1,.56.17.55.55,0,0,1,.18.43.53.53,0,0,1-.19.43A.79.79,0,0,1,73.55,218.76Z" transform="translate(0 0)"/><path d="M76.23,218.25v2a3,3,0,0,1,.49-.47,2.07,2.07,0,0,1,.54-.26,2.47,2.47,0,0,1,.63-.08,1.87,1.87,0,0,1,.9.21,1.63,1.63,0,0,1,.62.63,1.86,1.86,0,0,1,.19.53,4.65,4.65,0,0,1,.05.69V224a.82.82,0,0,1-.19.6.6.6,0,0,1-.48.21q-.66,0-.66-.81v-2.25a2.17,2.17,0,0,0-.19-1,.75.75,0,0,0-.72-.34,1.14,1.14,0,0,0-.65.2,1.19,1.19,0,0,0-.42.56,3.26,3.26,0,0,0-.11,1.06V224a.9.9,0,0,1-.18.6.61.61,0,0,1-.5.21c-.43,0-.65-.27-.65-.81v-5.78a.91.91,0,0,1,.17-.61.58.58,0,0,1,.48-.2.64.64,0,0,1,.5.2A.91.91,0,0,1,76.23,218.25Z" transform="translate(0 0)"/><path d="M84.33,224.09a3.89,3.89,0,0,1-.93.56,2.53,2.53,0,0,1-1,.19,2,2,0,0,1-.91-.2,1.57,1.57,0,0,1-.59-.55,1.42,1.42,0,0,1-.21-.75,1.36,1.36,0,0,1,.34-.94,1.72,1.72,0,0,1,1-.51l.63-.14.86-.18.78-.21a1.42,1.42,0,0,0-.22-.78,1,1,0,0,0-.78-.24,1.56,1.56,0,0,0-.76.14,1.17,1.17,0,0,0-.44.42,4.26,4.26,0,0,1-.26.38.42.42,0,0,1-.32.09.56.56,0,0,1-.39-.15.45.45,0,0,1-.16-.36,1.11,1.11,0,0,1,.25-.69,1.71,1.71,0,0,1,.77-.54,3.35,3.35,0,0,1,1.31-.22,3.73,3.73,0,0,1,1.39.21,1.3,1.3,0,0,1,.71.65,2.88,2.88,0,0,1,.2,1.2v.79c0,.22,0,.46,0,.73a2.77,2.77,0,0,0,.13.78,2.66,2.66,0,0,1,.12.53.48.48,0,0,1-.19.37.66.66,0,0,1-.44.17.57.57,0,0,1-.4-.19A3.22,3.22,0,0,1,84.33,224.09Zm-.08-1.93a7,7,0,0,1-.86.23l-.77.17a1.1,1.1,0,0,0-.41.22.57.57,0,0,0-.2.46.68.68,0,0,0,.23.51.89.89,0,0,0,.6.22,1.49,1.49,0,0,0,.73-.18,1.14,1.14,0,0,0,.5-.44,2.09,2.09,0,0,0,.18-1Z" transform="translate(0 0)"/><path d="M86.73,219.54h.15v-.8a3.56,3.56,0,0,1,0-.51.71.71,0,0,1,.09-.31.61.61,0,0,1,.22-.23.73.73,0,0,1,.33-.08.65.65,0,0,1,.46.19.53.53,0,0,1,.17.31,2.32,2.32,0,0,1,0,.52v.91h.49a.61.61,0,0,1,.43.13.45.45,0,0,1,.15.35.38.38,0,0,1-.21.37,1.41,1.41,0,0,1-.61.11h-.25V223c0,.21,0,.37,0,.48a.56.56,0,0,0,.12.27.4.4,0,0,0,.31.11,1.52,1.52,0,0,0,.32,0,1.45,1.45,0,0,1,.31,0,.39.39,0,0,1,.29.13.41.41,0,0,1,.13.32.55.55,0,0,1-.35.49,2.45,2.45,0,0,1-1,.17,1.76,1.76,0,0,1-.95-.21,1,1,0,0,1-.42-.58,3.82,3.82,0,0,1-.1-1V220.5H86.7a.64.64,0,0,1-.44-.14.46.46,0,0,1,0-.69A.7.7,0,0,1,86.73,219.54Z" transform="translate(0 0)"/><path d="M94.49,223.1a1.62,1.62,0,0,1-.27.94,1.69,1.69,0,0,1-.79.6,3.7,3.7,0,0,1-1.28.2,3,3,0,0,1-1.23-.22,1.89,1.89,0,0,1-.76-.55,1.12,1.12,0,0,1-.24-.66.51.51,0,0,1,.16-.38.53.53,0,0,1,.39-.15.44.44,0,0,1,.32.1,1,1,0,0,1,.22.29,1.58,1.58,0,0,0,.49.53,1.45,1.45,0,0,0,.78.18,1.14,1.14,0,0,0,.66-.18.5.5,0,0,0,.25-.41.56.56,0,0,0-.26-.51,3.3,3.3,0,0,0-.88-.31,6.44,6.44,0,0,1-1.12-.36,1.71,1.71,0,0,1-.69-.5A1.07,1.07,0,0,1,90,221a1.34,1.34,0,0,1,.24-.76,1.61,1.61,0,0,1,.7-.57,2.75,2.75,0,0,1,1.13-.21,3.83,3.83,0,0,1,.93.11,2.17,2.17,0,0,1,.69.29,1.47,1.47,0,0,1,.42.4.78.78,0,0,1,.14.43.5.5,0,0,1-.15.37.6.6,0,0,1-.44.15.53.53,0,0,1-.35-.12,2.94,2.94,0,0,1-.33-.35,1,1,0,0,0-.91-.43,1.11,1.11,0,0,0-.6.15.46.46,0,0,0-.24.39.42.42,0,0,0,.17.34,1.53,1.53,0,0,0,.48.22l.82.22a4.33,4.33,0,0,1,1,.36,1.76,1.76,0,0,1,.6.49A1.14,1.14,0,0,1,94.49,223.1Z" transform="translate(0 0)"/><path d="M102.9,223.19a1.13,1.13,0,0,1-.15.53,1.85,1.85,0,0,1-.45.54,2.35,2.35,0,0,1-.77.41,3.13,3.13,0,0,1-1,.16,2.57,2.57,0,0,1-1.93-.72,2.67,2.67,0,0,1-.69-1.93,3.19,3.19,0,0,1,.32-1.45,2.27,2.27,0,0,1,.91-1,3.16,3.16,0,0,1,2.39-.19,2.41,2.41,0,0,1,.73.39,1.8,1.8,0,0,1,.46.51,1,1,0,0,1,.16.51.52.52,0,0,1-.18.4.61.61,0,0,1-.43.17.45.45,0,0,1-.28-.09,1.36,1.36,0,0,1-.24-.27,2.18,2.18,0,0,0-.51-.56,1.21,1.21,0,0,0-.68-.18,1.14,1.14,0,0,0-1,.46,2,2,0,0,0-.36,1.26,2.5,2.5,0,0,0,.09.69,1.52,1.52,0,0,0,.27.54,1.1,1.1,0,0,0,.42.33,1.26,1.26,0,0,0,.55.12,1.19,1.19,0,0,0,.69-.19,1.53,1.53,0,0,0,.5-.56,1.12,1.12,0,0,1,.27-.35.47.47,0,0,1,.34-.13.54.54,0,0,1,.41.18A.66.66,0,0,1,102.9,223.19Z" transform="translate(0 0)"/><path d="M109.05,222.13a3.25,3.25,0,0,1-.18,1.1,2.62,2.62,0,0,1-.54.86,2.53,2.53,0,0,1-.84.56,3,3,0,0,1-1.1.19,2.9,2.9,0,0,1-1.09-.2,2.5,2.5,0,0,1-.84-.55,2.53,2.53,0,0,1-.53-.86,3,3,0,0,1-.19-1.1,3.31,3.31,0,0,1,.19-1.11,2.44,2.44,0,0,1,.53-.86,2.32,2.32,0,0,1,.84-.55,2.94,2.94,0,0,1,1.09-.19,2.8,2.8,0,0,1,1.1.2,2.36,2.36,0,0,1,1.38,1.41A3.21,3.21,0,0,1,109.05,222.13Zm-1.34,0a2,2,0,0,0-.36-1.27,1.26,1.26,0,0,0-1.65-.25,1.24,1.24,0,0,0-.46.6,2.36,2.36,0,0,0-.16.92,2.31,2.31,0,0,0,.16.91,1.4,1.4,0,0,0,.45.6,1.18,1.18,0,0,0,.7.21,1.15,1.15,0,0,0,1-.46A2,2,0,0,0,107.71,222.13Z" transform="translate(0 0)"/><path d="M111.42,222.92V224a.86.86,0,0,1-.19.61.63.63,0,0,1-.48.2.59.59,0,0,1-.47-.21.82.82,0,0,1-.19-.6v-3.71c0-.6.22-.9.65-.9a.55.55,0,0,1,.48.21,1.15,1.15,0,0,1,.16.62,2.35,2.35,0,0,1,.49-.62,1,1,0,0,1,.67-.21,1.75,1.75,0,0,1,.82.21.63.63,0,0,1,.39.56.51.51,0,0,1-.17.4.5.5,0,0,1-.36.16,1.55,1.55,0,0,1-.35-.09,1.71,1.71,0,0,0-.5-.09.76.76,0,0,0-.48.15,1,1,0,0,0-.29.46,4,4,0,0,0-.14.72C111.44,222.18,111.42,222.52,111.42,222.92Z" transform="translate(0 0)"/><path d="M115.67,222.92V224a.86.86,0,0,1-.19.61.66.66,0,0,1-.48.2.63.63,0,0,1-.48-.21.86.86,0,0,1-.18-.6v-3.71c0-.6.22-.9.65-.9a.55.55,0,0,1,.48.21,1.25,1.25,0,0,1,.16.62,2.35,2.35,0,0,1,.49-.62,1,1,0,0,1,.67-.21,1.75,1.75,0,0,1,.82.21.63.63,0,0,1,.39.56.54.54,0,0,1-.17.4.5.5,0,0,1-.36.16,1.72,1.72,0,0,1-.36-.09,1.6,1.6,0,0,0-.49-.09.73.73,0,0,0-.48.15,1,1,0,0,0-.29.46,3.28,3.28,0,0,0-.14.72C115.69,222.18,115.67,222.52,115.67,222.92Z" transform="translate(0 0)"/><path d="M122.2,222.46h-2.61a1.85,1.85,0,0,0,.19.8,1.19,1.19,0,0,0,.47.52,1.22,1.22,0,0,0,.65.18,1.51,1.51,0,0,0,.44-.06,1.46,1.46,0,0,0,.38-.18,2.3,2.3,0,0,0,.34-.25l.41-.37a.42.42,0,0,1,.29-.09.49.49,0,0,1,.33.11.39.39,0,0,1,.13.32.9.9,0,0,1-.14.42,1.67,1.67,0,0,1-.43.46,2.22,2.22,0,0,1-.72.37,3,3,0,0,1-1,.15,2.66,2.66,0,0,1-2-.73,2.75,2.75,0,0,1-.71-2,3.3,3.3,0,0,1,.18-1.1,2.26,2.26,0,0,1,.51-.86,2.22,2.22,0,0,1,.83-.56,2.94,2.94,0,0,1,1.09-.19,2.59,2.59,0,0,1,1.34.33,2.14,2.14,0,0,1,.84.85,2.22,2.22,0,0,1,.28,1.07.67.67,0,0,1-.29.65A1.77,1.77,0,0,1,122.2,222.46Zm-2.61-.76H122a1.59,1.59,0,0,0-.37-1,1.08,1.08,0,0,0-.84-.34,1.06,1.06,0,0,0-.82.34A1.77,1.77,0,0,0,119.59,221.7Z" transform="translate(0 0)"/><path d="M129.2,223.19a1.13,1.13,0,0,1-.15.53,1.85,1.85,0,0,1-.45.54,2.25,2.25,0,0,1-.77.41,3.11,3.11,0,0,1-1,.16,2.54,2.54,0,0,1-1.93-.72,2.63,2.63,0,0,1-.7-1.93,3.19,3.19,0,0,1,.32-1.45,2.29,2.29,0,0,1,.92-1,3.14,3.14,0,0,1,2.38-.19,2.47,2.47,0,0,1,.74.39,2,2,0,0,1,.46.51,1.06,1.06,0,0,1,.15.51.54.54,0,0,1-.17.4.64.64,0,0,1-.44.17.4.4,0,0,1-.27-.09,1.11,1.11,0,0,1-.25-.27,1.88,1.88,0,0,0-.51-.56,1.19,1.19,0,0,0-.68-.18,1.14,1.14,0,0,0-1,.46,2,2,0,0,0-.36,1.26,2.5,2.5,0,0,0,.09.69,2,2,0,0,0,.27.54,1.06,1.06,0,0,0,.43.33,1.22,1.22,0,0,0,.54.12,1.19,1.19,0,0,0,.69-.19,1.65,1.65,0,0,0,.51-.56,1.1,1.1,0,0,1,.26-.35.48.48,0,0,1,.35-.13.52.52,0,0,1,.4.18A.6.6,0,0,1,129.2,223.19Z" transform="translate(0 0)"/><path d="M130.44,219.54h.14v-.8c0-.22,0-.39,0-.51a.6.6,0,0,1,.1-.31.54.54,0,0,1,.22-.23.73.73,0,0,1,.33-.08.65.65,0,0,1,.46.19.53.53,0,0,1,.17.31,3.12,3.12,0,0,1,0,.52v.91h.49a.63.63,0,0,1,.43.13.45.45,0,0,1,.15.35.38.38,0,0,1-.22.37,1.37,1.37,0,0,1-.6.11h-.25V223a3.11,3.11,0,0,0,0,.48.42.42,0,0,0,.12.27.39.39,0,0,0,.31.11,1.45,1.45,0,0,0,.31,0,1.52,1.52,0,0,1,.32,0,.41.41,0,0,1,.29.13.44.44,0,0,1,.13.32.54.54,0,0,1-.36.49,2.42,2.42,0,0,1-1,.17,1.72,1.72,0,0,1-.94-.21,1,1,0,0,1-.43-.58,4.31,4.31,0,0,1-.1-1V220.5h-.17a.64.64,0,0,1-.44-.14.46.46,0,0,1,0-.69A.68.68,0,0,1,130.44,219.54Z" transform="translate(0 0)"/><path d="M134.34,221.62l-.15-2.34c0-.46-.05-.78-.05-1a.89.89,0,0,1,.22-.64.72.72,0,0,1,.56-.22.56.56,0,0,1,.56.29,2,2,0,0,1,.14.84,4.82,4.82,0,0,1,0,.65l-.21,2.41a2,2,0,0,1-.14.66.39.39,0,0,1-.37.23.38.38,0,0,1-.37-.23A2.08,2.08,0,0,1,134.34,221.62Zm.55,3.21a.74.74,0,0,1-.52-.19.68.68,0,0,1-.23-.54.69.69,0,0,1,.22-.52.7.7,0,0,1,.52-.21.72.72,0,0,1,.52.21.74.74,0,0,1,0,1A.76.76,0,0,1,134.89,224.83Z" transform="translate(0 0)"/></svg>