<?xml version="1.0" encoding="UTF-8"?>
<svg width="148px" height="127px" viewBox="0 0 148 127" version="1.1" xmlns="http://www.w3.org/2000/svg" xmlns:xlink="http://www.w3.org/1999/xlink">
    <!-- Generator: Sketch 51.2 (57519) - http://www.bohemiancoding.com/sketch -->
    <title>Group 46</title>
    <desc>Created with Sketch.</desc>
    <defs>
        <polygon id="path-1" points="0.593488602 0.535031936 11.821 0.535031936 11.821 17.2686855 0.593488602 17.2686855"></polygon>
    </defs>
    <g id="Main" stroke="none" stroke-width="1" fill="none" fill-rule="evenodd">
        <g id="Desktop-HD-Copy-8" transform="translate(-931.000000, -655.000000)">
            <g id="Group-46" transform="translate(931.000000, 654.000000)">
                <path d="M75.5108,114.0544 C75.1698,114.8574 74.7288,115.5374 74.1868,116.0984 C73.6458,116.6604 73.0148,117.1014 72.2938,117.4224 C71.5718,117.7424 70.8498,117.9234 70.1288,117.9634 L70.1288,104.4924 C72.1728,104.8524 73.6658,105.6354 74.6088,106.8384 C75.5498,108.0394 76.0218,109.5654 76.0218,111.4084 C76.0218,112.3694 75.8508,113.2524 75.5108,114.0544 Z M67.9748,70.7724 C69.0028,70.7724 69.8358,71.6054 69.8358,72.6334 C69.8358,73.6604 69.0028,74.4934 67.9748,74.4934 C66.9468,74.4934 66.1138,73.6604 66.1138,72.6334 C66.1138,71.6054 66.9468,70.7724 67.9748,70.7724 Z M66.6398,94.8694 C65.0358,94.4294 63.7328,93.6884 62.7308,92.6454 C61.7288,91.6044 61.2278,90.3404 61.2278,88.8564 C61.2278,87.8154 61.3978,86.9114 61.7388,86.1504 C62.0788,85.3894 62.5098,84.7464 63.0318,84.2264 C63.5518,83.7054 64.1348,83.3234 64.7758,83.0824 C65.4168,82.8414 66.0388,82.7234 66.6398,82.7234 L66.6398,94.8694 Z M82.1858,102.9284 C81.4838,101.5674 80.5418,100.4334 79.3598,99.5314 C78.1768,98.6284 76.7938,97.8874 75.2098,97.3054 C73.6248,96.7264 71.9318,96.1924 70.1288,95.7114 L70.1288,82.7234 C70.8498,82.7234 71.5808,82.8714 72.3228,83.1734 C73.0648,83.4734 73.7758,83.8944 74.4578,84.4354 C75.1398,84.9774 75.7608,85.6294 76.3228,86.3914 C76.8838,87.1534 75.9408,87.9934 76.2618,88.9164 L78.4868,88.9164 C78.7278,87.8734 79.0488,86.8624 79.4498,85.8794 C79.8498,84.8974 80.2708,83.8844 80.7128,82.8414 C80.1508,82.3614 79.4198,81.9214 78.5168,81.5204 C77.6158,81.1194 76.7328,80.6214 75.7308,80.3614 C74.7288,80.1014 73.7428,79.7094 72.7618,79.5494 C71.7788,79.3894 70.8688,79.2564 70.1478,79.2564 L70.3078,75.9224 C71.3388,75.1904 72.0148,73.9924 72.0148,72.6334 C72.0148,70.4014 70.2058,68.5924 67.9748,68.5924 C65.7428,68.5924 63.9338,70.4014 63.9338,72.6334 C63.9338,74.3364 64.9908,75.7864 66.4818,76.3814 L66.6398,79.6554 C62.6708,80.0164 59.6138,81.2784 57.4688,83.4444 C55.3238,85.6084 54.2518,88.3354 54.2518,91.6224 C54.2518,93.4274 54.5318,94.9914 55.0938,96.3134 C55.6548,97.6374 56.4758,98.7894 57.5588,99.7724 C58.6408,100.7544 59.9438,101.5754 61.4688,102.2374 C62.9908,102.8994 64.7158,103.4504 66.6398,103.8904 L66.6398,117.9634 C65.4368,117.8034 64.3148,117.4734 63.2718,116.9714 C62.2298,116.4694 61.3068,115.8594 60.5058,115.1364 C59.7028,114.4154 59.0328,113.6144 58.4908,112.7324 C57.9498,111.8494 57.5588,110.9274 57.3188,109.9654 L55.4698,109.9654 C55.2678,111.1684 55.7548,112.3604 55.5138,113.5424 C55.2738,114.7254 54.9928,115.9184 54.6728,117.1204 C55.2338,117.6034 55.9748,118.0754 56.8978,118.5344 C57.8198,118.9964 58.8228,119.3874 59.9048,119.7074 C60.9878,120.0294 62.1088,120.2984 63.2718,120.5194 C64.4348,120.7404 65.5578,120.8504 66.6398,120.8504 L65.0158,127.4644 C65.3368,127.4254 67.0508,127.3744 67.3918,127.3164 C67.7318,127.2554 68.0628,127.2254 68.3848,127.2254 C68.7048,127.2254 69.0358,127.2554 69.3758,127.3164 C69.7168,127.3744 70.0478,127.4254 70.3688,127.4644 L69.7738,121.3914 C71.4168,121.3104 73.3748,120.4384 74.9398,119.8574 C76.5028,119.2784 77.9068,118.4354 79.1488,117.3314 C80.3908,116.2304 81.3838,114.8974 82.1258,113.3334 C82.8668,111.7684 83.2388,110.0264 83.2388,108.1004 C83.2388,106.0164 82.8868,104.2924 82.1858,102.9284 Z" id="Fill-1" fill="#C1871F"></path>
                <path d="M74.1275,114.0544 C73.7865,114.8574 73.3455,115.5374 72.8035,116.0984 C72.2625,116.6604 71.6315,117.1014 70.9105,117.4224 C70.1885,117.7424 69.4665,117.9234 68.7455,117.9634 L68.7455,104.4924 C70.7895,104.8524 72.2825,105.6354 73.2255,106.8384 C74.1665,108.0394 74.6385,109.5654 74.6385,111.4084 C74.6385,112.3694 74.4675,113.2524 74.1275,114.0544 Z M67.2935,70.7724 C68.3215,70.7724 69.1545,71.6054 69.1545,72.6334 C69.1545,73.6604 68.3215,74.4934 67.2935,74.4934 C66.2655,74.4934 65.4325,73.6604 65.4325,72.6334 C65.4325,71.6054 66.2655,70.7724 67.2935,70.7724 Z M65.2575,94.8694 C63.6525,94.4294 62.3495,93.6884 61.3475,92.6454 C60.3455,91.6044 59.8445,90.3404 59.8445,88.8564 C59.8445,87.8154 60.0145,86.9114 60.3555,86.1504 C60.6955,85.3894 61.1265,84.7464 61.6485,84.2264 C62.1685,83.7054 62.7515,83.3234 63.3935,83.0824 C64.0335,82.8414 64.6555,82.7234 65.2575,82.7234 L65.2575,94.8694 Z M80.8025,102.9284 C80.1005,101.5674 79.1585,100.4334 77.9765,99.5314 C76.7935,98.6284 75.4105,97.8874 73.8265,97.3054 C72.2415,96.7264 70.5495,96.1924 68.7455,95.7114 L68.7455,82.7234 C69.4665,82.7234 70.1975,82.8714 70.9395,83.1734 C71.6815,83.4734 72.3925,83.8944 73.0745,84.4354 C73.7565,84.9774 74.3775,85.6294 74.9395,86.3914 C75.4995,87.1534 75.9405,87.9934 76.2625,88.9164 L77.1035,88.9164 C77.3455,87.8734 77.6645,86.8624 78.0665,85.8794 C78.4665,84.8974 78.8875,83.8844 79.3295,82.8414 C78.7675,82.3614 78.0365,81.9214 77.1335,81.5204 C76.2325,81.1194 75.2795,80.7874 74.2775,80.5284 C73.2755,80.2674 72.2825,80.0564 71.3005,79.8964 C70.3175,79.7364 69.4665,79.6554 68.7455,79.6554 L68.9055,76.3344 C70.3335,75.7124 71.3345,74.2904 71.3345,72.6334 C71.3345,70.4014 69.5255,68.5924 67.2935,68.5924 C65.0625,68.5924 63.2525,70.4014 63.2525,72.6334 C63.2525,74.0464 63.9815,75.2864 65.0805,76.0084 L65.2575,79.6554 C61.2875,80.0164 58.2305,81.2784 56.0855,83.4444 C53.9405,85.6084 52.8685,88.3354 52.8685,91.6224 C52.8685,93.4274 53.1485,94.9914 53.7105,96.3134 C54.2715,97.6374 55.0925,98.7894 56.1755,99.7724 C57.2585,100.7544 58.5605,101.5754 60.0855,102.2374 C61.6075,102.8994 63.3325,103.4504 65.2575,103.8904 L65.2575,117.9634 C64.0545,117.8034 62.9315,117.4734 61.8895,116.9714 C60.8465,116.4694 59.9235,115.8594 59.1225,115.1364 C58.3195,114.4154 57.6495,113.6144 57.1075,112.7324 C56.5665,111.8494 56.1755,110.9274 55.9355,109.9654 L54.7935,109.9654 C54.5915,111.1684 54.3715,112.3604 54.1315,113.5424 C53.8905,114.7254 53.6095,115.9184 53.2895,117.1204 C53.8505,117.6034 54.5915,118.0754 55.5145,118.5344 C56.4365,118.9964 57.4395,119.3874 58.5215,119.7074 C59.6045,120.0294 60.7255,120.2984 61.8895,120.5194 C63.0515,120.7404 64.1745,120.8504 65.2575,120.8504 L65.0155,127.4644 C65.3365,127.4254 65.6475,127.4444 65.9915,127.4084 C66.4365,127.3614 66.6485,127.3554 66.9705,127.3554 C67.2915,127.3554 67.6315,127.2994 67.9925,127.3164 C68.3375,127.3304 69.0545,127.2764 69.3765,127.3164 L68.7455,120.8504 C70.3885,120.7704 71.9915,120.4384 73.5565,119.8574 C75.1195,119.2784 76.5235,118.4354 77.7655,117.3314 C79.0075,116.2304 80.0005,114.8974 80.7425,113.3334 C81.4835,111.7684 81.8555,110.0264 81.8555,108.1004 C81.8555,106.0164 81.5035,104.2924 80.8025,102.9284 Z" id="Fill-3" fill="#E5A21A"></path>
                <path d="M76.1197,71.5515 C73.6627,72.5445 71.2677,72.3535 70.7717,71.1245 C70.2747,69.8955 71.8637,68.0935 74.3207,67.1005 C76.7767,66.1075 79.1717,66.2975 79.6687,67.5275 C80.1657,68.7565 78.5767,70.5575 76.1197,71.5515 M73.5307,65.1475 C68.9177,67.0125 65.9337,70.3955 66.8677,72.7025 C67.8007,75.0105 72.2967,75.3695 76.9097,73.5045 C81.5227,71.6395 84.5057,68.2565 83.5727,65.9485 C82.6397,63.6405 78.1437,63.2815 73.5307,65.1475" id="Fill-5" fill="#E5A21A"></path>
                <path d="M93.7202,64.4353 C91.2632,65.4283 88.8682,65.2373 88.3712,64.0083 C87.8742,62.7793 89.4632,60.9773 91.9202,59.9843 C94.3772,58.9913 96.7722,59.1813 97.2682,60.4113 C97.7652,61.6403 96.1762,63.4413 93.7202,64.4353 M91.1302,58.0313 C86.5172,59.8963 83.5342,63.2793 84.4672,65.5863 C85.4002,67.8943 89.8962,68.2533 94.5092,66.3883 C99.1222,64.5233 102.1062,61.1403 101.1722,58.8323 C100.2402,56.5243 95.7432,56.1653 91.1302,58.0313" id="Fill-7" fill="#E5A21A"></path>
                <path d="M110.4615,54.6999 C108.3605,56.3149 106.0025,56.7719 105.1945,55.7209 C104.3865,54.6699 105.4355,52.5089 107.5365,50.8929 C109.6385,49.2789 111.9965,48.8219 112.8045,49.8729 C113.6115,50.9249 112.5635,53.0859 110.4615,54.6999 M106.2535,49.2229 C102.3075,52.2549 100.3385,56.3129 101.8555,58.2869 C103.3715,60.2609 107.8005,59.4019 111.7455,56.3709 C115.6905,53.3389 117.6595,49.2809 116.1435,47.3069 C114.6265,45.3329 110.1985,46.1909 106.2535,49.2229" id="Fill-9" fill="#E5A21A"></path>
                <path d="M125.2603,41.6042 C123.5133,43.5962 121.2883,44.5022 120.2913,43.6282 C119.2953,42.7542 119.9043,40.4302 121.6513,38.4382 C123.3993,36.4462 125.6233,35.5402 126.6193,36.4142 C127.6163,37.2882 127.0083,39.6112 125.2603,41.6042 M120.0673,37.0492 C116.7863,40.7902 115.6443,45.1532 117.5153,46.7942 C119.3863,48.4362 123.5633,46.7342 126.8443,42.9932 C130.1253,39.2512 131.2683,34.8892 129.3973,33.2482 C127.5253,31.6062 123.3483,33.3082 120.0673,37.0492" id="Fill-11" fill="#E5A21A"></path>
                <path d="M137.2925,26.5974 C135.8305,28.8074 133.7485,30.0064 132.6435,29.2754 C131.5375,28.5434 131.8265,26.1594 133.2885,23.9484 C134.7505,21.7384 136.8325,20.5394 137.9385,21.2714 C139.0435,22.0024 138.7545,24.3874 137.2925,26.5974 M131.5315,22.7854 C128.7855,26.9364 128.2435,31.4134 130.3195,32.7864 C132.3965,34.1594 136.3045,31.9094 139.0495,27.7594 C141.7955,23.6094 142.3375,19.1314 140.2615,17.7584 C138.1865,16.3854 134.2765,18.6364 131.5315,22.7854" id="Fill-13" fill="#E5A21A"></path>
                <g id="Group-17" transform="translate(136.000000, 0.465000)">
                    <mask id="mask-2" fill="white">
                        <use xlink:href="#path-1"></use>
                    </mask>
                    <g id="Clip-16"></g>
                    <path d="M8.3755,9.9322 C7.2385,12.3262 5.3465,13.8052 4.1475,13.2362 C2.9505,12.6672 2.9015,10.2662 4.0385,7.8722 C5.1765,5.4782 7.0685,3.9982 8.2665,4.5682 C9.4635,5.1362 9.5125,7.5372 8.3755,9.9322 M2.1365,6.9682 C0.0015,11.4622 0.0935,15.9722 2.3415,17.0402 C4.5905,18.1082 8.1435,15.3302 10.2785,10.8352 C12.4135,6.3412 12.3205,1.8312 10.0725,0.7632 C7.8245,-0.3038 4.2715,2.4732 2.1365,6.9682" id="Fill-15" fill="#E5A21A" mask="url(#mask-2)"></path>
                </g>
                <path d="M91.5064,64.3396 L78.5394,69.5826 C77.7964,69.8836 76.9414,69.5206 76.6404,68.7766 C76.3394,68.0326 76.7024,67.1786 77.4454,66.8776 L90.4124,61.6346 C91.1564,61.3336 92.0114,61.6966 92.3124,62.4406 C92.6124,63.1846 92.2494,64.0386 91.5064,64.3396" id="Fill-18" fill="#C1871F"></path>
                <path d="M108.1294,55.1228 L96.0164,62.1158 C95.3214,62.5178 94.4254,62.2768 94.0244,61.5828 C93.6224,60.8878 93.8624,59.9908 94.5584,59.5898 L106.6704,52.5968 C107.3654,52.1948 108.2624,52.4348 108.6634,53.1308 C109.0644,53.8248 108.8234,54.7218 108.1294,55.1228" id="Fill-20" fill="#C1871F"></path>
                <path d="M122.6236,42.7048 L112.1476,51.9718 C111.5476,52.5028 110.6206,52.4458 110.0886,51.8458 C109.5576,51.2448 109.6136,50.3178 110.2156,49.7858 L120.6906,40.5188 C121.2916,39.9878 122.2186,40.0448 122.7496,40.6448 C123.2816,41.2468 123.2256,42.1728 122.6236,42.7048" id="Fill-22" fill="#C1871F"></path>
                <path d="M134.8677,28.4919 L125.7577,39.1039 C125.2347,39.7129 124.3087,39.7839 123.7007,39.2609 C123.0917,38.7379 123.0207,37.8119 123.5437,37.2039 L132.6537,26.5919 C133.1767,25.9819 134.1017,25.9119 134.7117,26.4339 C135.3197,26.9579 135.3897,27.8829 134.8677,28.4919" id="Fill-24" fill="#C1871F"></path>
                <path d="M142.7359,11.8093 L137.1599,24.6353 C136.8399,25.3723 135.9759,25.7113 135.2399,25.3923 C134.5049,25.0723 134.1649,24.2083 134.4839,23.4723 L140.0599,10.6463 C140.3809,9.9103 141.2439,9.5703 141.9799,9.8903 C142.7149,10.2093 143.0559,11.0743 142.7359,11.8093" id="Fill-26" fill="#C1871F"></path>
                <path d="M57.3721,70.2341 C59.6221,71.4751 61.9361,71.5251 62.5411,70.3441 C63.1471,69.1631 61.8141,67.1991 59.5641,65.9571 C57.3141,64.7141 55.0001,64.6661 54.3951,65.8461 C53.7891,67.0271 55.1221,68.9921 57.3721,70.2341 M60.5261,64.0801 C64.7501,66.4121 67.2531,70.1001 66.1171,72.3181 C64.9801,74.5361 60.6341,74.4431 56.4101,72.1111 C52.1861,69.7791 49.6841,66.0901 50.8201,63.8731 C51.9561,61.6551 56.3021,61.7481 60.5261,64.0801" id="Fill-28" fill="#E5A21A"></path>
                <path d="M41.2569,61.3366 C43.5069,62.5786 45.8209,62.6276 46.4259,61.4466 C47.0309,60.2656 45.6979,58.3016 43.4489,57.0596 C41.1989,55.8166 38.8849,55.7686 38.2789,56.9486 C37.6739,58.1306 39.0069,60.0946 41.2569,61.3366 M44.4109,55.1826 C48.6349,57.5146 51.1379,61.2026 50.0009,63.4206 C48.8639,65.6386 44.5189,65.5456 40.2949,63.2136 C36.0709,60.8816 33.5679,57.1926 34.7049,54.9756 C35.8409,52.7576 40.1869,52.8506 44.4109,55.1826" id="Fill-30" fill="#E5A21A"></path>
                <path d="M26.2383,49.903 C28.0823,51.731 30.2933,52.425 31.1783,51.454 C32.0623,50.482 31.2853,48.213 29.4413,46.383 C27.5973,44.555 25.3853,43.86 24.5013,44.832 C23.6173,45.803 24.3943,48.074 26.2383,49.903 M30.8463,44.84 C34.3083,48.273 35.7683,52.536 34.1083,54.36 C32.4473,56.184 28.2943,54.881 24.8333,51.447 C21.3713,48.013 19.9113,43.751 21.5713,41.926 C23.2323,40.102 27.3843,41.406 30.8463,44.84" id="Fill-32" fill="#E5A21A"></path>
                <path d="M13.4356,35.2976 C14.9006,37.4686 16.9366,38.6006 17.9836,37.8246 C19.0306,37.0496 18.6916,34.6606 17.2266,32.4896 C15.7616,30.3186 13.7256,29.1866 12.6786,29.9616 C11.6316,30.7366 11.9706,33.1256 13.4356,35.2976 M18.8906,31.2576 C21.6406,35.3346 22.2766,39.8186 20.3116,41.2756 C18.3456,42.7316 14.5226,40.6066 11.7716,36.5286 C9.0216,32.4526 8.3856,27.9676 10.3506,26.5116 C12.3166,25.0556 16.1396,27.1806 18.8906,31.2576" id="Fill-34" fill="#E5A21A"></path>
                <path d="M3.4844,19.0564 C4.6524,21.4174 6.5214,22.8274 7.6574,22.2054 C8.7944,21.5844 8.7674,19.1664 7.5994,16.8064 C6.4304,14.4454 4.5624,13.0354 3.4254,13.6574 C2.2894,14.2784 2.3154,16.6964 3.4844,19.0564 M9.4044,15.8194 C11.5994,20.2514 11.6484,24.7904 9.5154,25.9574 C7.3814,27.1244 3.8734,24.4774 1.6784,20.0444 C-0.5156,15.6124 -0.5646,11.0724 1.5684,9.9054 C3.7014,8.7384 7.2104,11.3854 9.4044,15.8194" id="Fill-36" fill="#E5A21A"></path>
                <path d="M43.3877,61.4636 L55.2607,68.0186 C55.9417,68.3946 56.7987,68.1166 57.1647,67.4026 C57.5317,66.6886 57.2737,65.7956 56.5927,65.4196 L44.7197,58.8636 C44.0387,58.4876 43.1817,58.7656 42.8157,59.4806 C42.4497,60.1946 42.7067,61.0876 43.3877,61.4636" id="Fill-38" fill="#C1871F"></path>
                <path d="M28.4287,50.5603 L39.2997,58.7833 C39.9237,59.2543 40.8077,59.1043 41.2647,58.4493 C41.7217,57.7923 41.5867,56.8713 40.9627,56.3993 L30.0927,48.1763 C29.4687,47.7053 28.5837,47.8553 28.1267,48.5113 C27.6697,49.1663 27.8047,50.0883 28.4287,50.5603" id="Fill-40" fill="#C1871F"></path>
                <path d="M15.8462,36.6648 L24.9092,46.9998 C25.4292,47.5928 26.3232,47.6298 26.8962,47.0808 C27.4682,46.5318 27.5112,45.5988 26.9922,45.0058 L17.9282,34.6708 C17.4082,34.0778 16.5142,34.0418 15.9422,34.5898 C15.3692,35.1388 15.3262,36.0718 15.8462,36.6648" id="Fill-42" fill="#C1871F"></path>
                <path d="M5.6084,21.198 L13.2224,32.744 C13.6584,33.406 14.5384,33.57 15.1764,33.107 C15.8144,32.645 15.9794,31.725 15.5434,31.063 L7.9294,19.517 C7.4924,18.855 6.6124,18.691 5.9744,19.154 C5.3364,19.616 5.1714,20.536 5.6084,21.198" id="Fill-44" fill="#C1871F"></path>
            </g>
        </g>
    </g>
</svg>