<?xml version="1.0" encoding="UTF-8"?>
<svg viewBox="0 0 25 25" version="1.1" xmlns="http://www.w3.org/2000/svg" xmlns:xlink="http://www.w3.org/1999/xlink">
    <g id="Main" stroke="none" stroke-width="1" fill="none" fill-rule="evenodd">
        <g id="Desktop-HD-Copy-2" transform="translate(-1344.000000, -38.000000)" fill="#000000" fill-rule="nonzero">
            <g id="001-github-logo" transform="translate(1344.000000, 38.000000)">
                <path d="M23.2990888,6.38537296 C22.1824601,4.4275641 20.6678246,2.8775641 18.7547836,1.73502331 C16.8414579,0.592424242 14.7526765,0.0212703963 12.486959,0.0212703963 C10.2215262,0.0212703963 8.1320615,0.592599068 6.2191344,1.73502331 C4.30592255,2.87750583 2.79134396,4.4275641 1.67471526,6.38537296 C0.558257403,8.34312354 0,10.4810023 0,12.798951 C0,15.5833333 0.793849658,18.0871212 2.38194761,20.3109557 C3.96987472,22.534965 6.02124146,24.0738928 8.53587699,24.9279138 C8.8285877,24.9835082 9.04527335,24.9444056 9.18616173,24.8115967 C9.32710706,24.6786131 9.39749431,24.5120629 9.39749431,24.3126457 C9.39749431,24.2793706 9.39470387,23.9800117 9.38929385,23.4142191 C9.38371298,22.8484266 9.38109339,22.3548368 9.38109339,21.933683 L9.00711845,21.9998834 C8.76867882,22.0445804 8.46788155,22.0635198 8.10472665,22.0581585 C7.7417426,22.052972 7.36492027,22.0140443 6.97477221,21.9416667 C6.5844533,21.8699301 6.2214123,21.7035548 5.88536446,21.4428904 C5.54948747,21.1822261 5.31104784,20.8410256 5.17010251,20.4198135 L5.00751708,20.0369464 C4.89914579,19.7820513 4.72853075,19.4988928 4.49544419,19.1885198 C4.26235763,18.8778555 4.02665148,18.6672494 3.78821185,18.556352 L3.67437358,18.4729604 C3.59851936,18.4175408 3.52813212,18.3506993 3.463041,18.2731352 C3.39800683,18.1955711 3.34931663,18.1179487 3.31679954,18.0402098 C3.28422551,17.9624126 3.31121868,17.8986014 3.39806378,17.8485431 C3.48490888,17.7984848 3.64185649,17.7741841 3.86958998,17.7741841 L4.19464692,17.8238928 C4.41144647,17.8683566 4.67961276,18.0011655 4.99948747,18.2231352 C5.31919134,18.4449301 5.58200456,18.7332751 5.78798405,19.0880536 C6.03741458,19.5429487 6.33792711,19.8895688 6.69037585,20.1280886 C7.04253986,20.3666084 7.3976082,20.4856643 7.75523918,20.4856643 C8.11287016,20.4856643 8.42175399,20.4579254 8.68200456,20.4027389 C8.94197039,20.3472611 9.18587699,20.2638695 9.41361048,20.1530303 C9.51116173,19.4095571 9.77676538,18.8384033 10.2101936,18.4391608 C9.59242597,18.3727273 9.03701595,18.272669 8.54367882,18.139627 C8.05062642,18.0064103 7.54111617,17.7902098 7.01548975,17.4904429 C6.48957859,17.1910839 6.05330296,16.8193473 5.70654897,16.3758741 C5.35973804,15.9321678 5.0751139,15.3496503 4.85307517,14.6288462 C4.63092255,13.9077506 4.51981777,13.0759324 4.51981777,12.1331585 C4.51981777,10.7907925 4.94806378,9.64848485 5.80438497,8.70559441 C5.40324601,7.69638695 5.44111617,6.56503497 5.91810934,5.31165501 C6.23246014,5.21171329 6.69863326,5.28671329 7.31640091,5.53618881 C7.93428246,5.78578089 8.38667426,5.99959207 8.67403189,6.1768648 C8.96138952,6.35407925 9.1916287,6.50425408 9.36509112,6.62604895 C10.3733485,6.33776224 11.4138383,6.19358974 12.4868451,6.19358974 C13.5598519,6.19358974 14.6005695,6.33776224 15.6088838,6.62604895 L16.2267084,6.22692308 C16.6492027,5.96060606 17.1481207,5.71655012 17.7222665,5.49469697 C18.296754,5.27296037 18.7360478,5.21188811 19.0396925,5.31182984 C19.5272779,6.56526807 19.5707289,7.69656177 19.1694761,8.70576923 C20.0257403,9.64865967 20.4541572,10.7912587 20.4541572,12.1333333 C20.4541572,13.0761072 20.3426538,13.9105478 20.1208428,14.6371795 C19.8987472,15.3639277 19.6116743,15.9458625 19.2595103,16.3842075 C18.9069476,16.8224942 18.4678815,17.191317 17.9422551,17.4906177 C17.4165148,17.7901515 16.9068337,18.006352 16.4137813,18.1395688 C15.9205011,18.2727855 15.3650911,18.3729021 14.7473235,18.4394522 C15.3107631,18.9384033 15.5925399,19.7259907 15.5925399,20.8018648 L15.5925399,24.3121795 C15.5925399,24.5115967 15.6603075,24.6780886 15.7959567,24.8111305 C15.9314351,24.9439394 16.1453872,24.983042 16.4380979,24.9273893 C18.9530752,24.0734848 21.0044419,22.5344988 22.5923121,20.3104895 C24.1800114,18.086655 24.9741458,15.5828671 24.9741458,12.7984848 C24.9735763,10.4808275 24.4150342,8.34312354 23.2990888,6.38537296 Z" id="Shape"></path>
            </g>
        </g>
    </g>
</svg>
