<?xml version="1.0" encoding="UTF-8"?>
<svg width="206px" height="231px" viewBox="0 0 206 231" version="1.1" xmlns="http://www.w3.org/2000/svg" xmlns:xlink="http://www.w3.org/1999/xlink">
    <!-- Generator: Sketch 51.2 (57519) - http://www.bohemiancoding.com/sketch -->
    <title>Shape</title>
    <desc>Created with Sketch.</desc>
    <defs></defs>
    <g id="Main" stroke="none" stroke-width="1" fill="none" fill-rule="evenodd">
        <g id="Desktop-HD-Copy-8" transform="translate(-211.000000, 0.000000)" fill-rule="nonzero">
            <g id="slime3" transform="translate(171.502566, -0.497434)">
                <g id="Shape" transform="translate(35.000000, 0.000000)">
                    <path d="M118.592122,155.374649 C118.592122,155.374649 135.299018,139.349774 150.491893,156.693569 C165.684768,174.037364 156.442655,210.650578 134.969883,192.515431 C113.497111,174.380284 118.592122,155.374649 118.592122,155.374649 Z" fill="#69B7B7"></path>
                    <path d="M55.8485164,181.902632 C55.8485164,181.902632 35.7885959,181.902632 41.4201719,203.608733 C47.051748,225.314835 78.9914165,244.194343 75.6755007,217.835029 C72.3595848,191.475716 55.8485164,181.902632 55.8485164,181.902632 Z" fill="#69B7B7"></path>
                    <path d="M213.452375,0 L0.493196473,0 C3.17192828,1.32544783 54.7375156,-0.662723916 46.0316372,41.7516067 C37.3257589,84.1659373 4.06930344,122.829251 13.002874,160.816585 C26.9054921,220.02434 93.0299868,212.071653 114.366086,207.843474 C119.836122,206.687363 125.097213,204.716521 129.969698,201.998249 C146.216207,192.110409 174.70452,163.427718 125.094407,97.6457417 C65.8676463,19.1394667 213.452375,0 213.452375,0 Z" fill="#73C6C8"></path>
                    <circle id="Oval" fill="#202121" cx="123.610222" cy="169.701846" r="9.98246151"></circle>
                    <circle id="Oval" fill="#202121" cx="88.1170253" cy="180.79347" r="14.4191111"></circle>
                    <path d="M13.8519714,143.666738 C13.8519714,143.666738 11.4040389,184.594664 41.1740578,199.445577 C50.3077418,204.01717 13.8124887,129.965486 13.8519714,143.666738 Z" fill="#9AD3D6"></path>
                    <path d="M78.1345638,210.79611 C78.5684099,210.79611 80.5071601,210.561873 81.0223524,211.843286 C81.5375447,213.124699 80.3444677,215.122601 80.3444677,215.122601 C80.3444677,215.122601 79.5038908,218.56726 81.8629294,218.140122 C84.221968,217.712984 82.9746602,214.488784 82.9746602,214.488784 C82.9746602,214.488784 81.7815832,211.843286 84.6693719,212.022408 C87.5571605,212.201531 87.0419682,216.321342 85.9302373,218.167679 C84.8185065,220.014016 85.2523527,224.602302 89.7535068,223.996042 C94.254661,223.389782 90.4313915,217.56142 90.3500453,217.423633 C90.2686992,217.285847 87.2046605,212.366874 92.5463916,212.449546 C97.8881227,212.532218 96.1934111,216.762259 96.1934111,216.762259 C96.1934111,216.762259 93.9021609,220.634055 96.4510073,220.799399 C98.9998536,220.964742 99.4879305,218.305466 98.5660074,216.583136 C97.6440843,214.860807 98.0508151,212.022408 102.036777,212.71134 C105.825528,213.263232 109.690205,212.658977 113.140528,210.975232 C115.174182,209.693819 114.740335,208.715536 121.275143,205.890916 C127.809952,203.066296 106.090527,201.867555 106.090527,201.867555 L91.5973531,203.32809 L78.1345638,210.79611 Z" fill="#73C6C8"></path>
                </g>
            </g>
        </g>
    </g>
</svg>