<svg xmlns="http://www.w3.org/2000/svg" viewBox="0 0 27.43 23.08"><defs><style>.cls-1{fill:#d7d7d6;}.cls-2{fill:#0f0f0f;}.cls-3{fill:#cb2423;}</style></defs><title>hook</title><g id="hook"><path class="cls-1" d="M9.46.1A6.15,6.15,0,0,0,7,.31,7.39,7.39,0,0,0,4.12,1.84,8.45,8.45,0,0,0,2.18,4.25,8.25,8.25,0,0,0,1.49,6V6a4.76,4.76,0,0,0,.88,4.09A12.1,12.1,0,0,1,4,4.6H4l.12-.18a5.92,5.92,0,0,1,1-1.09A5.64,5.64,0,0,1,7.15,2.18,4.35,4.35,0,0,1,9,2a4.55,4.55,0,0,1,3.22,1.86,5.82,5.82,0,0,1,.93,2,7.08,7.08,0,0,1,.23,2.33,7,7,0,0,1-.62,2.45v0h0a.87.87,0,0,0,.3,1.2l3.34,1.79a.88.88,0,0,0,1.18-.41l0-.09a.87.87,0,0,0-.3-1.2l-2-1.09a.86.86,0,0,1-.39-1,7.6,7.6,0,0,0,.33-2.29,8.48,8.48,0,0,0-.44-2.75,7.46,7.46,0,0,0-1.26-2.3A6.32,6.32,0,0,0,11.63.78,6.12,6.12,0,0,0,9.46.1Z" transform="translate(-0.84 -0.06)"/><polygon class="cls-2" points="15.94 8.08 14.04 11.61 12.15 15.15 19.78 22.02 25.89 10.63 15.94 8.08"/><polygon class="cls-3" points="24.2 17.05 27.43 11.03 25.89 10.63 19.78 22.02 20.96 23.09 24.2 17.05"/><polygon points="15.94 8.08 14.51 10.74 24.46 13.3 25.89 10.63 15.94 8.08"/><path class="cls-1" d="M.84,5.49h0Z" transform="translate(-0.84 -0.06)"/><path class="cls-1" d="M3.35,4.14l-.11.16Z" transform="translate(-0.84 -0.06)"/></g></svg>