<?xml version="1.0" encoding="UTF-8"?>
<svg viewBox="0 0 89 96" version="1.1" xmlns="http://www.w3.org/2000/svg" xmlns:xlink="http://www.w3.org/1999/xlink">
    <!-- Generator: Sketch 51.2 (57519) - http://www.bohemiancoding.com/sketch -->
    <title>Path</title>
    <desc>Created with Sketch.</desc>
    <defs></defs>
    <g id="Main" stroke="none" stroke-width="1" fill="none" fill-rule="evenodd">
        <g id="pokedex-copy" transform="translate(-936.000000, -267.000000)" fill="#000000">
            <path d="M936.938,313.987 C936.938,308.223638 938.024156,302.549028 940.1965,296.963 C942.368844,291.376972 945.538646,286.367356 949.706,281.934 C953.873354,277.500645 958.927303,273.90968 964.868,271.161 C970.808696,268.41232 977.591628,267.038 985.217,267.038 C994.349712,267.038 1002.26313,268.922148 1008.9575,272.6905 C1015.65187,276.458852 1020.63932,281.446302 1023.92,287.653 L1004.103,301.751 C1003.21633,299.445655 1002.04151,297.539341 1000.5785,296.032 C999.115492,294.524659 997.497342,293.327671 995.724,292.441 C993.950658,291.554329 992.110843,290.933668 990.2045,290.579 C988.298157,290.224332 986.458342,290.047 984.685,290.047 C980.960981,290.047 977.746847,290.778493 975.0425,292.2415 C972.338153,293.704507 970.121508,295.610822 968.3925,297.9605 C966.663491,300.310178 965.377837,302.970152 964.5355,305.9405 C963.693162,308.910848 963.272,311.858985 963.272,314.785 C963.272,318.065683 963.759662,321.213318 964.735,324.228 C965.710338,327.242682 967.12899,329.902655 968.991,332.208 C970.853009,334.513345 973.136153,336.35316 975.8405,337.7275 C978.544847,339.10184 981.58165,339.789 984.951,339.789 C986.724342,339.789 988.54199,339.589502 990.404,339.1905 C992.266009,338.791498 994.061491,338.126505 995.7905,337.1955 C997.519508,336.264495 999.07116,335.067507 1000.4455,333.6045 C1001.81984,332.141493 1002.906,330.346011 1003.704,328.218 L1024.851,340.853 C1023.43233,344.311017 1021.28218,347.41432 1018.4005,350.163 C1015.51882,352.91168 1012.23818,355.216991 1008.5585,357.079 C1004.87881,358.941009 1000.93319,360.359662 996.7215,361.335 C992.509812,362.310338 988.40902,362.798 984.419,362.798 C977.414298,362.798 971.008195,361.401514 965.2005,358.6085 C959.392804,355.815486 954.383187,352.11369 950.1715,347.503 C945.959812,342.89231 942.701345,337.661029 940.396,331.809 C938.090655,325.956971 936.938,320.016363 936.938,313.987 Z" id="Path"></path>
        </g>
    </g>
</svg>
