<?xml version="1.0" encoding="UTF-8"?>
<svg viewBox="0 0 25 25" version="1.1" xmlns="http://www.w3.org/2000/svg" xmlns:xlink="http://www.w3.org/1999/xlink">
    <g id="Main" stroke="none" stroke-width="1" fill="none" fill-rule="evenodd">
        <g id="Desktop-HD-Copy-2" transform="translate(-1386.000000, -39.000000)" fill="#000000" fill-rule="nonzero">
            <g id="002-linkedin-letters" transform="translate(1386.000000, 39.000000)">
                <rect id="Rectangle-path" x="0.308883827" y="8.1485119" width="5.36537585" height="16.8411905"></rect>
                <path d="M23.282574,9.68684524 C22.1555239,8.40089286 20.6648633,7.75779762 18.8115034,7.75779762 C18.1286446,7.75779762 17.5079157,7.84559524 16.9496014,8.02130952 C16.3914579,8.19690476 15.9200456,8.44327381 15.5351367,8.76053571 C15.1504556,9.07779762 14.8440774,9.37232143 14.6166287,9.64410714 C14.4003417,9.9022619 14.1888383,10.2029762 13.9824601,10.5431548 L13.9824601,8.14839286 L8.63308656,8.14839286 L8.64948747,8.96422619 C8.66047836,9.50821429 8.66588838,11.184881 8.66588838,13.9944643 C8.66588838,16.8042857 8.65506834,20.4692857 8.63331435,24.9898214 L13.9824601,24.9898214 L13.9824601,15.5917857 C13.9824601,15.0141071 14.0417426,14.5553571 14.1612187,14.2151786 C14.3890091,13.6370833 14.7328018,13.1530952 15.1937358,12.762381 C15.6546128,12.3711905 16.2261959,12.1757738 16.9092825,12.1757738 C17.8411731,12.1757738 18.5269932,12.5127976 18.9660592,13.1869048 C19.4049544,13.8609524 19.6244305,14.7928571 19.6244305,15.9825 L19.6244305,24.9892857 L24.9735763,24.9892857 L24.9735763,15.3371429 C24.9731777,12.8557143 24.4099658,10.972381 23.282574,9.68684524 Z" id="Shape"></path>
                <path d="M3.02408884,0.0421428571 C2.12454442,0.0421428571 1.39567198,0.317083333 0.837300683,0.866428571 C0.278986333,1.41589286 0,2.10958333 0,2.94815476 C0,3.775 0.27095672,4.46630952 0.812927107,5.02130952 C1.35472665,5.57636905 2.0702164,5.85404762 2.95899772,5.85404762 L2.99151481,5.85404762 C3.90210706,5.85404762 4.63656036,5.57660714 5.19470387,5.02130952 C5.75284738,4.46630952 6.02648064,3.7752381 6.01571754,2.94815476 C6.00489749,2.10964286 5.72830296,1.41589286 5.18650342,0.866428571 C4.64476082,0.316845238 3.92369021,0.0421428571 3.02408884,0.0421428571 Z" id="Shape"></path>
            </g>
        </g>
    </g>
</svg>
