<?xml version="1.0" encoding="UTF-8"?>
<svg width="109px" height="138px" viewBox="0 0 109 138" version="1.1" xmlns="http://www.w3.org/2000/svg" xmlns:xlink="http://www.w3.org/1999/xlink">
    <!-- Generator: Sketch 51.2 (57519) - http://www.bohemiancoding.com/sketch -->
    <title>Group 13</title>
    <desc>Created with Sketch.</desc>
    <defs>
        <polygon id="path-1" points="0.0002 0.703 24.2282 0.703 24.2282 26.2155 0.0002 26.2155"></polygon>
        <polygon id="path-3" points="0.786864912 0.604560128 83.698 0.604560128 83.698 121 0.786864912 121"></polygon>
    </defs>
    <g id="Main" stroke="none" stroke-width="1" fill="none" fill-rule="evenodd">
        <g id="Desktop-HD-Copy-8" transform="translate(-950.000000, -531.000000)">
            <g id="Group-13" transform="translate(950.000000, 530.000000)">
                <path d="M28.6403,17.6876 L28.3053,19.1466 C28.2393,19.4356 27.9483,19.6176 27.6603,19.5516 L26.2003,19.2156 C25.9113,19.1496 25.7303,18.8596 25.7963,18.5706 L26.1313,17.1116 C26.1983,16.8226 26.4883,16.6406 26.7763,16.7076 L28.2363,17.0426 C28.5253,17.1086 28.7063,17.3986 28.6403,17.6876 M29.3383,15.8656 L26.2983,15.1676 C26.1733,15.1386 26.0503,15.1446 25.9293,15.1586 C25.9463,14.8856 25.9693,14.6136 25.9693,14.3366 C25.9693,7.2916 20.5453,1.5806 13.8543,1.5806 C7.1643,1.5806 1.7413,7.2916 1.7413,14.3366 C1.7413,21.3816 7.1643,27.0926 13.8543,27.0926 C18.5573,27.0926 22.6243,24.2666 24.6323,20.1436 C24.7653,20.2566 24.9163,20.3506 25.0983,20.3926 L28.1383,21.0906 C28.7393,21.2296 29.3443,20.8506 29.4813,20.2496 L30.1803,17.2086 C30.3183,16.6086 29.9393,16.0036 29.3383,15.8656" id="Fill-1" fill="#E5A21A"></path>
                <g id="Group-5" transform="translate(0.000000, 0.297000)">
                    <mask id="mask-2" fill="white">
                        <use xlink:href="#path-1"></use>
                    </mask>
                    <g id="Clip-4"></g>
                    <path d="M24.2282,13.4595 C24.2282,20.5045 18.8042,26.2155 12.1142,26.2155 C5.4232,26.2155 0.0002,20.5045 0.0002,13.4595 C0.0002,6.4145 5.4232,0.7025 12.1142,0.7025 C18.8042,0.7025 24.2282,6.4145 24.2282,13.4595" id="Fill-3" fill="#B5C9C8" mask="url(#mask-2)"></path>
                </g>
                <path d="M4.0798,21.3898 C4.6478,21.8038 5.4518,21.6778 5.8658,21.1098 L17.2788,5.4478 C17.6928,4.8798 17.5668,4.0758 16.9988,3.6618 C16.4308,3.2478 15.6268,3.3738 15.2128,3.9418 L3.7998,19.6038 C3.3858,20.1718 3.5118,20.9758 4.0798,21.3898" id="Fill-6" fill="#E4EDEC"></path>
                <path d="M9.3849,21.3077 L9.7109,21.5457 C10.1899,21.8937 10.8659,21.7877 11.2159,21.3097 L19.1079,10.4787 C19.4569,9.9997 19.3509,9.3237 18.8719,8.9747 L18.5459,8.7367 C18.0669,8.3887 17.3899,8.4947 17.0419,8.9727 L9.1489,19.8037 C8.7999,20.2827 8.9059,20.9587 9.3849,21.3077" id="Fill-8" fill="#E4EDEC"></path>
                <g id="Group-12" transform="translate(25.000000, 17.297000)">
                    <mask id="mask-4" fill="white">
                        <use xlink:href="#path-3"></use>
                    </mask>
                    <g id="Clip-11"></g>
                    <path d="M81.5661,101.3232 C80.5741,104.9392 74.4371,111.9672 44.4981,118.3902 C37.0411,119.9902 30.4701,118.4102 24.9711,113.6912 C-0.1509,92.1402 2.8351,11.8942 3.3251,1.7622 C3.3541,1.1692 2.9101,0.6632 2.3181,0.6092 C1.6891,0.5522 1.1391,1.0272 1.1091,1.6582 C0.8821,6.5392 0.1851,26.9312 1.9981,48.9092 C4.8081,82.9762 12.0981,105.2832 23.6681,115.2092 C28.1601,119.0632 33.2971,121.0002 38.9971,121.0002 C40.9081,121.0002 42.8821,120.7822 44.9181,120.3452 C68.5381,115.2772 81.5171,109.0552 83.4951,101.8522 C84.5911,97.8572 80.8901,95.7022 80.8901,95.7022 C80.8901,95.7022 82.5071,97.8892 81.5661,101.3232" id="Fill-10" fill="#232323" mask="url(#mask-4)"></path>
                </g>
            </g>
        </g>
    </g>
</svg>