<?xml version="1.0" encoding="UTF-8"?>
<svg width="73px" height="23px" viewBox="0 0 73 23" version="1.1" xmlns="http://www.w3.org/2000/svg" xmlns:xlink="http://www.w3.org/1999/xlink">
    <!-- Generator: Sketch 51.2 (57519) - http://www.bohemiancoding.com/sketch -->
    <title>Fill 1</title>
    <desc>Created with Sketch.</desc>
    <defs></defs>
    <g id="Main" stroke="none" stroke-width="1" fill="none" fill-rule="evenodd">
        <g id="Desktop-HD-Copy-8" transform="translate(-903.000000, -558.000000)" fill="#FF3268">
            <path d="M975.089846,563.075622 C975.329822,564.356332 975.053673,565.502778 974.726793,566.61693 C972.563476,573.990417 968.004584,579.025667 960.306808,580.443738 C952.206499,581.935689 945.108003,579.846073 939.601557,573.411553 C939.068227,572.788451 938.903022,573.028667 938.480637,573.451368 C934.934367,576.998649 930.943213,579.809576 925.841507,580.517175 C919.882017,581.343775 914.252936,580.589062 909.534575,576.433278 C906.020066,573.337896 904.345965,569.221263 903.388486,564.750057 C903.296509,564.32072 903.24247,563.882978 903.181374,563.447669 C903.173213,563.389717 903.227031,563.323137 903.298936,563.143971 C903.864689,563.919917 904.351259,564.678169 904.927379,565.360109 C906.437819,567.146689 908.220439,568.499287 910.654612,568.714287 C913.147456,568.934375 915.069474,567.834379 916.619837,566.010418 C918.293938,564.040689 920.041266,562.191069 922.333836,560.905492 C928.467574,557.466154 934.172971,558.572121 938.504458,564.116337 C938.905889,564.63017 939.122265,564.961075 939.66508,564.193976 C944.327858,557.6044 951.188584,557.663679 957.040216,561.663965 C958.811808,562.87522 960.451059,564.312757 961.63484,566.074785 C963.340923,568.61475 968.245222,569.425867 971.083253,567.407255 C972.400477,566.4705 973.432508,565.313658 974.30132,563.975658 C974.494978,563.677489 974.572396,563.279783 975.089846,563.075622" id="Fill-1"></path>
        </g>
    </g>
</svg>