<svg xmlns="http://www.w3.org/2000/svg" viewBox="0 0 279.27 64.8"><defs><style>.cls-1{fill:#1d1d1b}</style></defs><path class="cls-1" d="M50.33 66V32.33L39.62 56h-9.36L19.55 32.33V66H2V2.09h19.17l13.77 30.06L48.8 2.09h19.08V66z" transform="translate(-2 -1.73)" id="letter-M"/><path class="cls-1" d="M281.27 2.09V66h-17.55V41H242.3v25h-17.55V2.09h17.55v23.58h21.42V2.09z" transform="translate(-2 -1.73)" id="letter-H"/><path class="cls-1" d="M159.05 33.5a31.81 31.81 0 0 1 8.64-21.69A32.8 32.8 0 0 1 178 4.52a35.53 35.53 0 0 1 29.83 1 25 25 0 0 1 10.13 10.13l-13.46 9.57a11.3 11.3 0 0 0-2.39-3.87 12.09 12.09 0 0 0-3.28-2.43 14.1 14.1 0 0 0-3.74-1.26 20.36 20.36 0 0 0-3.73-.36 13.09 13.09 0 0 0-11 5.35 16.92 16.92 0 0 0-2.61 5.4 21.94 21.94 0 0 0-.85 6 20.63 20.63 0 0 0 1 6.39 16.67 16.67 0 0 0 2.88 5.4 13.93 13.93 0 0 0 4.63 3.73 13.31 13.31 0 0 0 6.17 1.4 17.6 17.6 0 0 0 3.69-.41 13.69 13.69 0 0 0 3.64-1.35 12.3 12.3 0 0 0 3.09-2.44 10.76 10.76 0 0 0 2.21-3.64l14.31 8.55a18.23 18.23 0 0 1-4.37 6.3 27.71 27.71 0 0 1-6.66 4.68 35.31 35.31 0 0 1-8 2.88 36.8 36.8 0 0 1-8.32 1 29.64 29.64 0 0 1-13-2.84A33 33 0 0 1 168 56.18a34.18 34.18 0 0 1-6.61-10.62 32.65 32.65 0 0 1-2.34-12.06z" transform="translate(-2 -1.73)" id="letter-C"/><path class="cls-1" d="M157.16 17.39H138.8V66h-17.55V17.39H102.8V2.09h54.36z" transform="translate(-2 -1.73)" id="letter-T"/><path class="cls-1" d="M78.86 66V2.09h17.55V66z" transform="translate(-2 -1.73)" id="letter-I"/></svg>