<?xml version="1.0" encoding="UTF-8"?>
<svg width="271px" height="111px" viewBox="0 0 271 111" version="1.1" xmlns="http://www.w3.org/2000/svg" xmlns:xlink="http://www.w3.org/1999/xlink">
    <!-- Generator: Sketch 51.2 (57519) - http://www.bohemiancoding.com/sketch -->
    <title>Group 15</title>
    <desc>Created with Sketch.</desc>
    <defs>
        <polygon id="path-1" points="0.000147832519 0.991018666 270.305 0.991018666 270.305 67.8889 0.000147832519 67.8889"></polygon>
        <polygon id="path-3" points="0.699346796 0.366 136.959726 0.366 136.959726 95.9611586 0.699346796 95.9611586"></polygon>
    </defs>
    <g id="Main" stroke="none" stroke-width="1" fill="none" fill-rule="evenodd">
        <g id="Desktop-HD-Copy-8" transform="translate(-585.000000, -407.000000)">
            <g id="Group-15" transform="translate(585.000000, 406.000000)">
                <g id="Group-3" transform="translate(0.000000, 14.634000)">
                    <mask id="mask-2" fill="white">
                        <use xlink:href="#path-1"></use>
                    </mask>
                    <g id="Clip-2"></g>
                    <path d="M71.7859,15.8339 C71.7859,15.8339 262.5899,34.8589 268.8479,67.8889 C290.0459,30.7089 73.0869,9.0779 73.0869,9.0779 C73.0869,9.0779 -5.7221,-11.0831 0.3319,12.2609 C11.1489,0.3209 71.7859,15.8339 71.7859,15.8339" id="Fill-1" fill="#67DFD0" mask="url(#mask-2)"></path>
                </g>
                <path d="M52.739,33.8805 C84.04,29.0225 186.96,52.5185 230.798,81.3175 C230.798,81.3175 249.386,93.9075 262.635,85.7815 C264.655,84.5435 265.953,84.1885 267.191,84.6115 C267.55,84.0735 267.958,83.5295 268.309,82.9705 C268.42,82.7945 268.747,82.6985 268.848,82.5225 C262.59,49.4925 71.786,30.4675 71.786,30.4675 C71.786,30.4675 12.98,15.4235 0.861,26.3695 C2.045,27.0605 22.37,38.5935 52.739,33.8805" id="Fill-4" fill="#232323"></path>
                <g id="Group-8" transform="translate(68.000000, 0.634000)">
                    <mask id="mask-4" fill="white">
                        <use xlink:href="#path-3"></use>
                    </mask>
                    <g id="Clip-7"></g>
                    <path d="M136.1467,61.5951 C131.3027,86.7391 97.1847,101.3061 59.9407,94.1321 C22.6967,86.9571 -3.5683,60.7591 1.2747,35.6151 C3.3787,24.6941 11.2347,12.8011 22.2407,6.7851 C36.5747,-1.0499 56.4127,-0.9799 77.4807,3.0781 C93.7347,6.2091 111.0897,11.1891 121.4887,19.8971 C134.9177,31.1441 138.8757,47.4241 136.1467,61.5951" id="Fill-6" fill="#161616" mask="url(#mask-4)"></path>
                </g>
                <path d="M126.3635,105.7159 C198.3865,112.4149 239.4035,119.5499 263.7025,89.8029 C263.0795,90.0109 262.4055,90.3299 261.6725,90.7799 C248.4235,98.9049 229.8355,86.3159 229.8355,86.3159 C185.9975,57.5159 83.0775,34.0199 51.7765,38.8779 C26.9285,42.7349 8.8115,35.7169 2.3945,32.6589 C13.3025,57.5119 55.0175,99.0799 126.3635,105.7159" id="Fill-9" fill="#232323"></path>
                <path d="M266.9504,78.2037 C266.9504,78.2037 269.0154,81.2927 264.9744,84.2217 C264.1554,84.7727 263.3384,85.3497 262.6354,85.7817 C249.3864,93.9077 230.7984,81.3177 230.7984,81.3177 C186.9604,52.5187 84.0404,29.0227 52.7394,33.8807 C32.5904,37.0077 16.8704,32.9837 8.2214,29.7197 C7.6834,29.4877 -0.2556,26.0037 3.9704,24.4757 C8.3434,22.8957 2.2704,23.0367 2.2704,23.0367 L0.0394,25.2757 L0.6164,27.9037 C1.0704,29.4027 1.6634,30.9937 2.3944,32.6587 C8.8114,35.7177 26.9284,42.7347 51.7764,38.8777 C83.0774,34.0197 185.9974,57.5167 229.8354,86.3157 C229.8354,86.3157 248.4234,98.9057 261.6724,90.7797 C262.4054,90.3297 263.0794,90.0107 263.7024,89.8037 C265.0074,88.2067 267.6374,84.3377 268.8474,82.5227 L269.8874,77.1267 L266.9504,78.2037 Z" id="Fill-11" fill="#67DFD0"></path>
                <path d="M93.0324,64.3478 C91.8194,64.2278 90.9444,63.2528 91.0484,61.6968 C91.1494,60.1918 91.9944,59.3778 93.3374,59.5468 C94.6864,59.7178 95.2974,60.7008 95.3404,62.1298 C95.1144,63.6698 94.2504,64.4688 93.0324,64.3478 M159.0304,73.8768 C156.6354,74.0788 154.2204,74.4288 151.8864,75.0288 C150.5974,75.3598 149.3674,74.7428 148.2594,74.1548 C147.3004,73.6468 148.1254,73.1048 148.1964,72.5968 C148.3924,71.2098 150.0594,69.6738 147.0124,68.3168 C143.6764,66.8308 143.9294,69.4358 143.5444,70.8868 C143.2064,72.1538 142.5574,72.1288 140.9554,71.6988 C138.6324,71.0758 138.1354,70.2538 138.8754,68.6938 C139.2414,67.9208 139.3894,67.0398 139.5404,66.1768 C139.7314,65.0858 139.0954,64.0858 137.7304,63.5278 C136.2004,62.9018 135.1444,63.3328 134.7604,64.5378 C134.4844,65.4048 134.2254,66.2958 134.1424,67.2158 C133.9954,68.8318 133.4674,69.3898 131.1784,68.7908 C128.7604,68.1588 128.8604,67.2218 129.3024,65.7198 C129.6714,64.4668 129.9024,63.1638 130.0904,61.8538 C130.2644,60.6408 129.5684,59.5868 128.1704,59.0818 C126.6034,58.5168 125.5354,59.0668 125.2134,60.4268 C124.8974,61.7598 124.5944,63.1188 124.4974,64.5018 C124.3714,66.2818 123.8864,66.9388 121.5714,66.4658 C119.1184,65.9658 119.2074,64.9308 119.5764,63.2528 C119.9474,61.5688 120.1284,59.8318 120.3784,58.1148 C120.5904,56.6588 119.9364,55.4358 118.3504,54.9418 C116.5774,54.3888 115.5844,55.2448 115.3674,56.9068 C115.0814,59.1018 114.7244,61.2888 114.5504,63.5008 C114.3764,65.7068 112.8764,64.6308 111.8644,64.5088 C110.8024,64.3798 109.2324,64.7618 109.5924,62.5568 C109.9624,60.2878 110.0994,57.9688 110.3234,55.6678 C110.4784,54.0718 109.7684,52.7978 108.1544,52.3848 C106.3504,51.9228 105.3924,52.9248 105.2424,54.7378 C105.0814,56.6988 104.8084,58.6558 104.8104,60.6248 C104.8114,62.7458 104.3854,63.5748 102.0364,63.3598 C99.5314,63.1318 99.5454,61.8968 99.7684,59.8898 C99.9944,57.8668 99.9844,55.8008 100.1554,53.7688 C100.2684,52.4198 99.8834,51.7138 98.5494,52.0748 C92.6444,53.6698 86.9224,56.0828 82.5824,61.2658 C80.1264,64.1998 80.3424,66.4748 82.8394,69.4178 C85.7414,72.8368 89.1304,74.8628 92.4544,76.7628 C98.7564,80.3648 98.6624,80.2488 99.1154,72.1328 C99.1284,71.9058 99.1674,71.6738 99.1494,71.4518 C98.9714,69.2658 99.4874,68.3478 101.7794,68.4698 C104.2324,68.5998 104.1814,69.8188 103.9244,71.7518 C103.6654,73.7018 103.5874,75.6738 103.4424,77.6358 C103.3194,79.3038 103.9694,80.4008 105.4074,80.4268 C107.0114,80.4558 107.8944,79.3278 108.0784,77.5938 C108.2894,75.6088 108.6454,73.6198 108.6504,71.6398 C108.6554,69.4428 109.5674,69.2378 111.4074,69.3848 C113.5024,69.5528 113.8394,70.3928 113.4514,72.2208 C113.0974,73.8908 113.0324,75.6148 112.7644,77.3078 C112.4944,79.0128 112.7924,80.4438 114.5854,80.5518 C116.5714,80.6718 117.2414,79.2488 117.4444,77.5168 C117.6114,76.0848 117.9084,74.6618 118.0744,73.2288 C118.2714,71.5378 118.2684,70.1668 120.9904,70.7328 C123.4294,71.2398 123.2194,72.2408 122.8304,73.7828 C122.5604,74.8528 122.4674,75.9598 122.2264,77.0388 C121.8814,78.5838 122.1634,79.8908 123.9604,80.1228 C125.7474,80.3548 126.5934,79.2998 126.8584,77.7928 C127.0854,76.4998 127.4604,75.2258 127.6204,73.9238 C127.7784,72.6388 128.2294,72.2278 129.8704,72.5478 C132.0744,72.9768 133.0704,73.6368 132.2014,75.5508 C131.8584,76.3058 131.7844,77.1618 131.6144,77.9768 C131.3524,79.2268 131.9304,80.1438 133.3724,80.4198 C134.8204,80.6978 135.8204,80.1148 136.1914,78.9618 C136.4814,78.0568 136.8324,77.1498 136.8954,76.2108 C137.0134,74.4628 138.1304,74.6338 139.8364,75.0938 C141.5674,75.5598 142.1464,76.0238 141.6314,77.3858 C141.1174,78.7418 139.7994,80.6278 142.7984,81.3788 C145.8074,82.1318 145.5274,79.9928 146.1914,78.7598 C146.4484,78.2818 145.9494,77.1858 147.3174,77.4928 C148.4194,77.7398 149.6654,77.9988 150.3704,78.9998 C151.8604,81.1178 153.3894,83.1118 154.9044,84.9968 C155.4094,85.6248 156.0114,86.2238 156.7914,87.0558 C158.7304,82.5968 160.5404,78.4338 162.5414,73.8328 C160.9964,73.8008 159.9884,73.7968 159.0304,73.8768" id="Fill-13" fill="#FFFFFF"></path>
            </g>
        </g>
    </g>
</svg>