<?xml version="1.0" encoding="UTF-8"?>
<svg width="93px" height="79px" viewBox="0 0 93 79" version="1.1" xmlns="http://www.w3.org/2000/svg" xmlns:xlink="http://www.w3.org/1999/xlink">
    <!-- Generator: Sketch 51.2 (57519) - http://www.bohemiancoding.com/sketch -->
    <title>Group 23</title>
    <desc>Created with Sketch.</desc>
    <defs>
        <polygon id="path-1" points="0.83205 0.312 2.51955 0.312 2.51955 14.6343273 0.83205 14.6343273"></polygon>
    </defs>
    <g id="Main" stroke="none" stroke-width="1" fill="none" fill-rule="evenodd">
        <g id="Desktop-HD-Copy-5" transform="translate(-593.000000, -818.000000)">
            <g id="Group-23" transform="translate(593.000000, 818.000000)">
                <g id="Group-3" transform="translate(40.000000, 30.000000)" fill="#000000">
                    <path d="M52.3171842,43.09242 L46.5150263,30.66462 L45.2247105,31.24982 L49.7351316,40.91122 C49.8815,41.22622 49.6015526,41.58042 49.2533947,41.52162 C30.9076053,38.40522 17.4189737,30.74162 9.14560526,18.71982 C5.13113158,12.88602 2.74234211,6.56782 1.38097368,0.49602 L0.0167631579,0.87962 C1.41507895,7.07882 3.85928947,13.53142 7.96328947,19.49542 C16.4682895,31.85882 30.2979737,39.71842 49.0658158,42.89642 C49.4580263,42.96362 49.5702895,43.46482 49.2335,43.67622 L42.5431842,47.86222 L43.3702368,49.00042 L52.1495,43.63842 C52.3385,43.52362 52.4081316,43.28982 52.3171842,43.09242" id="Fill-1"></path>
                </g>
                <path d="M5.44348058,28.3609734 L6.99372748,26.7217376 C7.71306553,25.9616527 8.10356333,25.2514095 8.1622848,24.5937769 C8.22100627,23.9361443 7.95088749,23.3560431 7.3533965,22.8520888 C6.72654478,22.3259828 6.07620446,22.1446146 5.40090751,22.3079844 C4.72561057,22.4727387 4.04150541,22.9213133 3.34712398,23.6564774 L1.79834512,25.2943287 L5.44348058,28.3609734 Z M0,25.5200005 L2.53970372,22.832706 C2.99773122,22.3495191 3.46603497,21.956324 3.94755105,21.6545052 C4.43053517,21.3526865 4.91645536,21.15332 5.40677966,21.0591747 C5.89563593,20.9650294 6.38155612,20.9830277 6.8630722,21.1145543 C7.34312025,21.2446963 7.811424,21.5022114 8.26798345,21.885715 C8.72307487,22.2692187 9.04604297,22.6804121 9.23541973,23.1206799 C9.42332844,23.5609476 9.49673028,24.0164447 9.45268918,24.4857867 C9.40864807,24.9565132 9.25597224,25.4383156 8.99319365,25.9325785 C8.73041505,26.4268413 8.37074603,26.9155661 7.91418657,27.3987531 L6.31402642,29.091984 L11,33.0322417 L10.0854131,34 L0,25.5200005 Z" id="Fill-4" fill="#000000"></path>
                <path d="M18.0252198,19.5682988 C17.7430939,19.197027 17.418305,18.8933846 17.049477,18.6559915 C16.6806489,18.4185984 16.2966824,18.2612564 15.8934488,18.186726 C15.4915914,18.1108154 15.0787242,18.1204768 14.6589758,18.2170903 C14.2364751,18.3137037 13.830489,18.5110713 13.4423938,18.8091929 C13.0542986,19.1059343 12.7597867,19.4440815 12.558858,19.8222543 C12.3593055,20.200427 12.2437027,20.5951621 12.2092971,21.0036991 C12.1748915,21.4136164 12.2244355,21.8276741 12.3551768,22.2458725 C12.4859181,22.6654511 12.6923517,23.0601861 12.9744776,23.431458 C13.2566035,23.8013496 13.5813924,24.1063721 13.9502205,24.3437653 C14.3190485,24.5811584 14.703015,24.7385004 15.1062487,24.8130308 C15.5081061,24.8889414 15.9168446,24.8778998 16.3297118,24.7799061 C16.7412028,24.6832927 17.1430602,24.4859251 17.5325316,24.1878035 C17.922003,23.8896819 18.2206436,23.5529149 18.4284535,23.1761223 C18.6348871,22.7979495 18.7559948,22.4045947 18.7904004,21.9960576 C18.8234298,21.5861404 18.7752619,21.1720826 18.6445206,20.7525041 C18.5124031,20.3343057 18.3073458,19.9395706 18.0252198,19.5682988 M19.0491305,18.7857296 C19.4317208,19.2894999 19.7000845,19.8222543 19.8487167,20.3853729 C20.0001013,20.9471112 20.0372594,21.5047091 19.9629433,22.0581663 C19.8886272,22.6116235 19.7000845,23.1429977 19.3973152,23.6522888 C19.0945459,24.1615798 18.6830549,24.6156632 18.161466,25.0145389 C17.6495107,25.4065136 17.1086546,25.6811719 16.5388979,25.8385139 C15.9677649,25.997236 15.4076417,26.0386418 14.8557759,25.9641114 C14.30391,25.889581 13.7768162,25.7046352 13.2772469,25.4106542 C12.7763014,25.1180533 12.3331572,24.7177975 11.9505669,24.2140272 C11.5679767,23.7102569 11.299613,23.1775025 11.1509808,22.6157641 C11.0009724,22.0526455 10.9624381,21.4950477 11.0367542,20.9415905 C11.1124465,20.3881332 11.299613,19.8567591 11.6023823,19.347468 C11.9051515,18.8381769 12.3125139,18.3868539 12.8244692,17.9948792 C13.3460581,17.5960036 13.8910428,17.3185849 14.4607996,17.1598627 C15.0319326,17.0039009 15.5920557,16.961115 16.1439216,17.0356454 C16.6957874,17.1101758 17.221505,17.2951216 17.7224505,17.5877224 C18.2247723,17.8817035 18.6665402,18.2805791 19.0491305,18.7857296" id="Fill-6" fill="#000000"></path>
                <path d="M20.4924966,14.2567376 C20.3165075,13.9361702 20.1527967,13.6510638 20,13.4014184 L21.0190996,12.8425532 C21.1459754,13.0382979 21.2755798,13.2567376 21.4133697,13.5021277 C21.5497954,13.7460993 21.6603001,13.9503546 21.7435198,14.1134752 L21.7748977,14.0964539 C21.7585266,13.5361702 21.888131,13.0014184 22.1664393,12.4950355 C22.4447476,11.9886525 22.8444748,11.5914894 23.366985,11.3049645 C23.5034106,11.2312057 23.6289222,11.1687943 23.744884,11.1191489 C23.8594816,11.0695035 23.9836289,11.0297872 24.1145975,11 L24.5102319,12.1375887 C24.4379263,12.1503546 24.3219645,12.1858156 24.1637108,12.2439716 C24.0068213,12.3035461 23.8553888,12.3716312 23.7080491,12.4524823 C23.425648,12.6070922 23.1814461,12.8099291 22.9740791,13.0624113 C22.7680764,13.3134752 22.627558,13.6099291 22.5525239,13.9489362 C22.4774898,14.2879433 22.4706685,14.6723404 22.5361528,15.1021277 C22.6002729,15.5304965 22.7612551,16 23.0204638,16.5106383 L25,20.4156028 L23.9331514,21 L20.9140518,15.0468085 C20.8090041,14.8411348 20.6684857,14.577305 20.4924966,14.2567376" id="Fill-8" fill="#000000"></path>
                <path d="M30.3324128,10.2873103 L28.1301346,11.1628888 L29.9375216,15.7347385 C30.0521229,16.0242889 30.1750086,16.2528814 30.3047981,16.4205159 C30.4359682,16.5881504 30.5754229,16.7045248 30.7217812,16.7682536 C30.8709009,16.8319824 31.0241629,16.8555343 31.1829479,16.8361386 C31.3431136,16.8181283 31.5074215,16.7751806 31.6744909,16.708681 C31.8305143,16.6463376 31.9851571,16.5590568 32.1411805,16.4454533 C32.2944425,16.3332351 32.4338971,16.2057775 32.5595444,16.0658512 L33,17.0342521 C32.8315499,17.1908033 32.6451502,17.332115 32.4435623,17.4581873 C32.2419745,17.5842595 32.0141526,17.697863 31.7573352,17.7989979 C31.5460822,17.8835078 31.3127373,17.9444658 31.0573007,17.9818719 C30.801864,18.0192779 30.5422851,17.9984968 30.2813255,17.9222993 C30.0176044,17.8461018 29.7704522,17.6992484 29.5371074,17.4817392 C29.3037625,17.2656154 29.0994132,16.9386589 28.9282016,16.5036405 L26.9951674,11.6145321 L25.3769417,12.2587473 L25,11.3055859 L26.6182258,10.6613707 L25.7455989,8.45164333 L26.8791854,8 L27.753193,10.2097274 L29.9554712,9.33276346 L30.3324128,10.2873103 Z" id="Fill-10" fill="#000000"></path>
                <path d="M35.865441,8.57510714 L34.0349054,9.15145502 L36,16.6439775 L34.8662403,17 L32.902478,9.5060184 L31.2717826,10.0196246 L31,8.98073932 L32.6293632,8.4671331 L32.0178524,6.13401851 C31.7633893,5.16079309 31.7793765,4.3276421 32.0644817,3.63164731 C32.3522515,2.93711164 32.9451106,2.44831027 33.8430589,2.16524321 C33.988276,2.12001084 34.1454836,2.08061491 34.3173461,2.0455963 C34.4878764,2.01203681 34.6517453,1.99744572 34.8089528,2.00036394 L34.8955502,3.15743703 C34.764988,3.15889614 34.6344258,3.16619168 34.5051958,3.18078277 C34.3772982,3.19391474 34.2347455,3.22601513 34.0802025,3.27562482 C33.7817746,3.36900777 33.5486278,3.50178665 33.3834266,3.67250235 C33.2168932,3.84175895 33.1076472,4.04457504 33.0556888,4.27803241 C33.0023981,4.51148978 32.9917399,4.769752 33.0223821,5.04844173 C33.0543565,5.32713147 33.1103118,5.62041229 33.1889155,5.92390687 L33.7631228,8.11111061 L35.5936584,7.53622184 L35.865441,8.57510714 Z" id="Fill-12" fill="#000000"></path>
                <path d="M45.6637133,10.0393955 C45.5972221,9.57052266 45.4614692,9.13814893 45.2536842,8.74367809 C45.0458993,8.35061106 44.7827049,8.01931171 44.4668718,7.75258765 C44.1496534,7.48445979 43.7839518,7.28933008 43.3656113,7.16579473 C42.9472709,7.04225938 42.4956849,7.01558697 42.0066975,7.08577752 C41.5204807,7.15737187 41.0965993,7.31179106 40.7350534,7.54763127 C40.376278,7.7848753 40.0798381,8.07686795 39.8498894,8.42360922 C39.6199406,8.7703505 39.4592536,9.16201371 39.3705987,9.60000269 C39.2819437,10.0365879 39.2694766,10.4900187 39.3359678,10.9588916 C39.4010738,11.4291682 39.5395971,11.8601381 39.7473821,12.2546089 C39.9537819,12.6490798 40.2155909,12.9789753 40.5328094,13.2471032 C40.8486425,13.5138272 41.2129589,13.7075531 41.6243731,13.8254732 C42.0357874,13.9433934 42.484603,13.9672581 42.9722051,13.8970676 C43.458422,13.8254732 43.886459,13.6752655 44.2535458,13.4436367 C44.6206327,13.2120079 44.919843,12.9228229 45.1497918,12.5760816 C45.3797405,12.2293403 45.5390423,11.8362733 45.6290825,11.3996882 C45.7191226,10.963103 45.7302045,10.5082683 45.6637133,10.0393955 M46.9478245,9.85268863 C47.0378647,10.4914226 47.0115452,11.096465 46.867481,11.6720275 C46.724802,12.2447823 46.4865418,12.758577 46.1499302,13.2134117 C45.8133185,13.6682464 45.3880519,14.0458715 44.8741303,14.3490947 C44.3588236,14.650914 43.7742551,14.8502551 43.1204251,14.9443105 C42.4776768,15.0383658 41.8681742,15.0130972 41.2905319,14.8699085 C40.7128897,14.7267198 40.1989681,14.4852643 39.7501526,14.1441383 C39.301337,13.8030123 38.9300945,13.3776576 38.6336546,12.8680743 C38.3358294,12.3584909 38.1418968,11.7843323 38.0532418,11.1455984 C37.9618165,10.5068645 37.9881359,9.90182201 38.1322001,9.32766339 C38.2748792,8.75350477 38.5145245,8.23971001 38.849751,7.7848753 C39.1863626,7.3300406 39.6116292,6.95241549 40.126936,6.64919235 C40.6422428,6.34877684 41.219885,6.1494357 41.8626333,6.05678419 C42.5164634,5.96132505 43.1315069,5.98659365 43.7105344,6.12978235 C44.2881767,6.27297105 44.800713,6.51442651 45.2495285,6.85414873 C45.6969589,7.19527476 46.0709719,7.62062944 46.3674118,8.13021276 C46.6638517,8.63979609 46.8563991,9.21535852 46.9478245,9.85268863" id="Fill-14" fill="#000000"></path>
                <g id="Group-18" transform="translate(49.000000, 0.000000)">
                    <mask id="mask-2" fill="white">
                        <use xlink:href="#path-1"></use>
                    </mask>
                    <g id="Clip-17"></g>
                    <polygon id="Fill-16" fill="#000000" mask="url(#mask-2)" points="2.51955 14.6023273 1.19355 14.6343273 0.83205 0.343418182 2.15805 0.311418182"></polygon>
                </g>
                <path d="M56.9992107,2.92919123 C56.9891427,3.19038338 56.8870248,3.40134628 56.6928568,3.56207991 C56.5001272,3.72281354 56.2915764,3.79887499 56.0686428,3.79026426 C55.8428327,3.78165353 55.6414734,3.68980574 55.4616882,3.51472089 C55.2804648,3.33963604 55.1956062,3.12149754 55.2056742,2.86030539 C55.2157422,2.60054836 55.3164218,2.38958546 55.5105898,2.22885183 C55.7033194,2.06668308 55.9118702,1.99205675 56.136242,2.00066748 C56.3606139,2.00927821 56.5619732,2.09969088 56.7431967,2.27477573 C56.9229818,2.4512957 57.0092786,2.66799908 56.9992107,2.92919123 Z M56.2714405,15 L55,14.9512059 L55.3379961,6.22566582 L56.6079982,6.27589508 L56.2714405,15 Z" id="Fill-19" fill="#000000"></path>
                <path d="M66.6678048,10.9401483 C66.7315343,10.4697508 66.7162946,10.0162035 66.6234713,9.57950621 C66.530648,9.14280891 66.3685535,8.75244928 66.1371879,8.40702312 C65.9044368,8.06159697 65.6038001,7.77093349 65.236663,7.53643688 C64.8681406,7.30053609 64.4414303,7.14888558 63.9523761,7.08148536 C63.4633218,7.01408513 63.0144448,7.04357273 62.6043596,7.16994815 C62.1942745,7.29772775 61.8299083,7.49571591 61.5154173,7.76531681 C61.2009263,8.03491771 60.9390814,8.36770632 60.7354242,8.76368265 C60.5289962,9.1582548 60.3959956,9.59214375 60.3336516,10.0625412 C60.2699221,10.5315344 60.2837764,10.9850817 60.3765997,11.421779 C60.4680376,11.8584763 60.6315175,12.248836 60.8642685,12.5942621 C61.0956341,12.9396883 61.3921146,13.2275434 61.7550954,13.4564233 C62.1194616,13.6838991 62.543401,13.8327413 63.0324553,13.9001415 C63.5201241,13.9675417 63.971772,13.9408625 64.3873988,13.8201037 C64.8030257,13.7007491 65.1701627,13.5055693 65.4846537,13.2359684 C65.7991447,12.9663675 66.0609896,12.6335789 66.2646468,12.2390068 C66.4683039,11.8430304 66.6040754,11.4105457 66.6678048,10.9401483 M67.9520918,11.118478 C67.8648102,11.757376 67.6763927,12.3330862 67.382683,12.8442046 C67.0889734,13.3567272 66.7190655,13.7849994 66.2729593,14.1290214 C65.8282386,14.4716392 65.3142467,14.7173692 64.7365254,14.863403 C64.1601895,15.010841 63.5436763,15.0389245 62.8897567,14.9476533 C62.248306,14.8605947 61.6691992,14.6654149 61.1510511,14.3663264 C60.6342883,14.068642 60.2061927,13.6923241 59.8681495,13.2401809 C59.5287209,12.7866336 59.2848865,12.274111 59.1380317,11.7012091 C58.9911768,11.1283072 58.962083,10.5231094 59.0479792,9.88421139 C59.1352608,9.24390925 59.3236783,8.66819899 59.617388,8.15708062 C59.9110976,7.64455807 60.2810055,7.21768998 60.7271117,6.87366799 C61.1732178,6.52964601 61.6844389,6.28532019 62.2621602,6.1378822 C62.8384961,5.99044421 63.4494676,5.96095661 64.0923038,6.05082358 C64.7448379,6.14209472 65.3308718,6.33587036 65.8490199,6.63495886 C66.3657826,6.93404736 66.7938783,7.31036529 67.1333069,7.76250847 C67.4713501,8.21465164 67.7137991,8.72717419 67.8606539,9.30007611 C68.0088941,9.87297802 68.037988,10.47958 67.9520918,11.118478" id="Fill-21" fill="#000000"></path>
            </g>
        </g>
    </g>
</svg>