<?xml version="1.0" encoding="UTF-8"?>
<svg width="174px" height="146px" viewBox="0 0 174 146" version="1.1" xmlns="http://www.w3.org/2000/svg" xmlns:xlink="http://www.w3.org/1999/xlink">
    <!-- Generator: Sketch 51.2 (57519) - http://www.bohemiancoding.com/sketch -->
    <title>Group 3</title>
    <desc>Created with Sketch.</desc>
    <defs>
        <polygon id="path-1" points="0 0 174 0 174 146 0 146"></polygon>
    </defs>
    <g id="Main" stroke="none" stroke-width="1" fill="none" fill-rule="evenodd">
        <g id="Desktop-HD-Copy-8" transform="translate(-1248.000000, -622.000000)">
            <g id="Group-3" transform="translate(1248.000000, 622.000000)">
                <mask id="mask-2" fill="white">
                    <use xlink:href="#path-1"></use>
                </mask>
                <g id="Clip-2"></g>
                <path d="M136.134081,109.805854 C134.195347,112.363686 131.467829,113.509835 128.393296,113.996749 C126.98739,114.219356 125.568564,114.215676 124.149123,114.209544 C123.632291,114.207091 123.48524,114.045808 123.493239,113.538657 C123.520926,111.7345 123.504314,109.928503 123.504314,108.123732 C123.504314,106.318348 123.521542,104.512964 123.492008,102.708807 C123.48401,102.216374 123.636598,102.036694 124.123281,101.97353 C128.850446,101.362128 133.574533,100.729875 138.299851,100.106822 C138.558267,100.07248 138.84314,99.9719085 138.830835,100.440425 C138.737928,103.794858 138.235248,107.034001 136.134081,109.805854 M123.634752,97.1890171 C124.049448,96.6757337 125.038197,97.1338253 125.77099,97.1767523 C129.860728,97.4183695 133.948006,97.6961681 138.036513,97.9617018 C138.048204,98.0107611 138.060509,98.0604337 138.072199,98.1094931 C136.503861,98.322288 134.935523,98.5418286 133.365339,98.7478778 C130.320339,99.1477115 127.272878,99.5285346 124.229724,99.9486053 C123.706124,100.020968 123.436634,100.00441 123.492008,99.3678653 C123.556612,98.6258427 123.260665,97.6507882 123.634752,97.1890171 M122.585092,64.9367899 C122.595552,62.6874189 122.567249,62.6696349 124.802546,62.2483377 C131.114661,61.0574221 137.429851,59.883064 143.744427,58.7025735 C141.643876,60.1553434 139.355665,61.2824819 136.99239,62.2538569 C132.614088,64.0537217 128.081351,65.2342122 123.349264,65.6266869 C122.745679,65.6763595 122.582016,65.5567774 122.585092,64.9367899 M118.518119,100.249094 C115.869356,100.458822 113.224286,100.704119 110.577369,100.931632 C110.280191,100.956775 109.982397,100.9672 109.685835,100.984371 C109.675375,100.946963 109.6643,100.908329 109.654455,100.870308 C110.238352,100.664872 110.820403,100.45637 111.40553,100.254 C114.309017,99.2476699 117.21681,98.2523784 120.114144,97.2294911 C120.653741,97.0393861 120.820481,97.0835395 120.825403,97.718858 C120.843861,100.079839 120.867242,100.062668 118.518119,100.249094 M120.101839,114.307049 C112.714222,115.509003 106.78604,112.840175 102.778133,106.499254 C101.034441,103.740279 99.6943706,100.7912 98.5702617,97.7403215 C98.3690665,97.193923 98.0755799,96.9345217 97.4972207,96.8443752 C96.1860679,96.6401657 94.8915276,96.3231196 93.5772984,96.1477325 C92.9687907,96.0667846 92.7792857,95.7816271 92.6789958,95.2542391 C92.5048727,94.3392823 92.2538402,93.4384301 92.0926379,92.5204071 C92.0126521,92.0647684 91.8176096,91.929242 91.3733805,91.947026 C90.5895191,91.9783013 89.8019661,91.9316949 89.0181047,91.9641968 C88.5363437,91.9838205 88.3093069,91.8838621 88.3345332,91.3337842 C88.412058,89.6614737 88.0496605,89.9748403 89.6776803,89.8301152 C93.2272065,89.5142957 96.7835007,89.2751314 100.333027,88.9642178 C100.864625,88.9169981 101.00983,89.0813469 101.07628,89.5504769 C101.622645,93.3887575 102.85012,97.0277345 104.385849,100.570433 C104.641188,101.159145 104.599965,101.753376 104.563048,102.342088 C104.524901,102.959623 104.726096,103.070619 105.321068,103.030145 C110.112221,102.705741 114.905835,102.420583 119.698218,102.118868 C120.808791,102.048959 120.808175,102.040373 120.808175,103.15402 C120.808791,104.810386 120.808175,106.466753 120.808175,108.122506 C120.808175,109.898454 120.78418,111.675629 120.822327,113.450964 C120.834632,114.016986 120.661124,114.215676 120.101839,114.307049 M88.3388402,87.4752666 C88.2662376,86.9460389 88.5375743,86.8975928 88.9799576,86.9350006 C92.7048373,87.2520466 96.4315629,87.5506954 100.157058,87.8542501 C100.166287,87.8904313 100.174901,87.9259994 100.1829,87.9621806 C98.2047878,88.1295956 96.2279066,88.3013033 94.2491796,88.4644257 C92.5959335,88.6005654 90.939611,88.6956178 89.2912871,88.873458 C88.5652617,88.9525662 88.2028642,88.8133603 88.3382249,88.0155327 C88.3683734,87.8401455 88.3628359,87.6524935 88.3388402,87.4752666 M87.4110042,58.8233822 C87.3439392,57.8526203 87.6435785,57.5036858 88.6304809,57.331978 C91.8975955,56.7622764 95.1419448,56.0650204 98.3955233,55.4168238 C98.5770297,55.3800293 98.6391726,55.4517786 98.5868741,55.6271658 C95.1284088,56.8671407 91.6656365,58.0936244 88.2164003,59.3587423 C87.5918953,59.5880947 87.4589958,59.5200249 87.4110042,58.8233822 M96.0427086,53.9910366 C93.4382461,54.4748844 90.8362447,54.9691573 88.2274752,55.4260225 C87.9782885,55.4695626 87.5002192,55.8651036 87.4288472,55.1506769 C87.3722419,54.5815885 87.6829562,54.5417277 88.1216478,54.5037068 C90.6418175,54.2847794 93.1607567,54.0419357 95.6796959,53.807064 C95.8556648,53.7610709 96.0654738,53.6476212 96.0427086,53.9910366 M86.1004668,25.0184267 C86.0432461,22.7482054 86.0426308,22.7408465 88.2650071,22.2790754 C91.0380552,21.7026281 93.8135644,21.1402854 96.5884583,20.571197 C96.7748868,20.5141655 96.9834653,20.4148203 96.9588543,20.7637549 C93.3773338,22.2453471 89.7958133,23.7263261 86.2216761,25.2042389 C86.1564569,25.1073467 86.1016973,25.0638066 86.1004668,25.0184267 M102.762136,62.6365198 C103.380488,63.6753515 103.894859,64.5479946 104.419074,65.413892 C104.537822,65.6101294 104.551358,65.7775444 104.475679,66.0019909 C103.638904,68.472129 102.816895,70.9465598 101.911825,73.4062727 C101.559887,69.8249405 101.435601,66.2699776 102.762136,62.6365198 M114.105976,27.2978465 C115.214703,27.0090096 116.327737,26.7373435 117.430926,26.4307226 C117.912687,26.2964226 118.187716,26.3313774 118.114498,26.9305147 C118.081273,27.1972749 118.091117,27.4726204 118.113267,27.7418336 C118.147107,28.1508659 118.003748,28.3207339 117.565672,28.3563019 C114.107207,28.6353269 110.650587,28.9388816 107.193967,29.2350774 L107.130594,29.1167218 C109.456337,28.5102256 111.780849,27.9031162 114.105976,27.2978465 M118.93343,59.6506454 C119.100785,61.1064815 119.100785,61.105255 117.844392,61.4566425 C115.901966,61.9993616 113.95831,62.5414673 112.017115,63.0903188 C111.732857,63.1712667 111.459675,63.3049534 111.11512,63.1510297 C113.714661,61.9870967 116.283437,60.8366551 118.93343,59.6506454 M117.156513,65.6959833 C114.083211,65.6965965 111.009908,65.6965965 107.93599,65.6965965 C107.939682,65.6438577 107.943373,65.5917322 107.94645,65.5396066 C109.293289,65.2495432 110.640127,64.9607063 111.986351,64.6688032 C114.103515,64.2100983 116.22314,63.7587523 118.336612,63.2816502 C118.830064,63.1700402 119.018338,63.2325909 119.027567,63.8065852 C119.059562,65.6965965 119.084173,65.6959833 117.156513,65.6959833 M122.476803,25.1956535 C125.182786,24.4616031 127.904151,23.7790649 130.591061,22.9812373 C131.486287,22.7150904 132.01604,22.8984497 132.437504,23.7778384 C128.455438,25.2667896 124.473373,26.7551275 120.397786,28.2784202 C120.25012,25.8052159 120.248274,25.8009232 122.476803,25.1956535 M138.040205,20.906027 C138.058663,20.9575393 138.076506,21.0090516 138.094965,21.0605639 C136.638607,21.7437153 135.201322,22.4716334 133.717893,23.0891679 C133.078621,23.3553148 132.991867,22.5844699 132.524257,22.2312426 C134.44761,21.7688582 136.2436,21.3377492 138.040205,20.906027 M141.493133,57.5092049 C141.499286,57.5870866 141.504823,57.6643551 141.510361,57.7422368 C135.851669,58.6069078 130.192977,59.472192 124.53367,60.336863 C124.354625,60.3644589 124.174965,60.3859223 123.996535,60.4165844 C122.571556,60.6600414 122.601704,60.6600414 122.589399,59.2704354 C122.585092,58.7344621 122.764752,58.5645941 123.273586,58.4560503 C127.07599,57.6441181 130.933769,57.5325081 134.798317,57.5116579 C137.029922,57.4993931 139.261528,57.5092049 141.493133,57.5092049 M85.6617751,87.5709323 C85.5688685,89.0672424 86.0186351,88.8955347 84.2866337,89.0457789 C80.9936775,89.3327761 77.7001061,89.6105746 74.4065347,89.8920526 C75.3663649,89.324804 76.4129491,88.9930401 77.4619943,88.6618895 C79.9046393,87.8916578 82.4008133,87.3704023 84.9332885,86.994485 C85.480884,86.9129239 85.6999222,86.9527846 85.6617751,87.5709323 M70.6668883,60.5741876 C75.1282532,59.7886248 79.5742362,59.0165533 84.0140665,58.2107536 C84.6484158,58.0960774 84.7665488,58.2818896 84.7628571,58.873668 C84.7511669,60.6398044 84.7794696,60.6624944 83.0228571,60.9470386 C79.1238543,61.5792909 75.2266973,61.5302316 71.3393847,60.8299094 C71.1129632,60.7894354 70.8607001,60.785756 70.6668883,60.5741876 M72.4757992,57.0621516 C75.7306082,55.574427 79.2142999,55.08506 82.7306011,54.7422578 C83.060389,54.7103692 83.3944837,54.6435259 83.7205799,54.6698953 C84.0694413,54.6981044 84.6238048,54.2326539 84.7284017,54.9292966 C84.8170014,55.5173955 84.9215983,56.0846442 83.9500778,56.2839478 C78.8808204,57.3240059 73.831867,58.4609562 68.5835644,59.6071052 C69.8227298,58.4364266 71.1092716,57.6870451 72.4757992,57.0621516 M83.270198,23.3479559 C83.69843,23.2565829 83.8448656,23.3307852 83.8633239,23.8054343 C83.9199293,25.2226362 83.9531542,25.2483923 82.6333876,25.7524771 C78.723925,27.2451077 74.7473975,27.9957157 70.6108982,26.7232389 C70.3524823,26.6441307 70.1002192,26.5417193 69.8510325,26.436855 C69.7741231,26.4049664 69.7169024,26.3289244 69.6086139,26.2375514 C74.1930339,25.2698558 78.7331542,24.3156515 83.270198,23.3479559 M172.842051,86.6302194 C173.317659,85.176223 173.762504,83.7124148 174,82.196481 L174,81.6543752 C173.990156,81.6347515 173.979081,81.6169675 173.969236,81.597957 L173.0414,81.7776368 C173.058013,81.80094 173.073395,81.82363 173.089392,81.8463199 C170.488621,82.3356869 168.002291,82.8054301 165.515347,83.2702674 C164.052221,83.5443865 162.589095,83.8129864 161.125969,84.0871055 L160.34826,84.237963 L161.125969,84.0871055 C158.080354,84.6568072 155.035354,85.2295751 151.987893,85.7863986 C151.541202,85.868573 151.213876,86.0868871 150.883472,86.3524208 C149.005035,87.8585428 147.123522,89.3597587 145.170021,90.9222989 C144.355396,88.7360918 143.858868,86.5529509 143.557999,84.3250434 C142.493571,76.43998 143.578303,68.7235581 145.430898,61.069687 C145.565644,60.5147031 145.733614,59.9676914 145.851132,59.4090281 C145.948345,58.9490967 146.00372,58.4989772 146.660219,58.5909635 C146.886025,58.6222388 147.010311,58.4517576 146.95186,58.2493878 C146.771584,57.6238811 147.566521,56.4979692 146.07017,56.5212724 C145.944653,56.5231121 145.805601,56.2992788 145.688699,56.1655921 C143.909321,54.1234968 142.337907,51.9771504 141.053211,49.6848525 C141.051365,49.6817863 141.048904,49.6793333 141.047058,49.6762671 C133.660057,37.9204214 139.896492,23.8489745 139.969095,23.6846257 C140.241662,22.6666443 140.509922,21.6480496 140.776337,20.6282284 C141.127044,19.2815494 140.81633,18.9516253 139.50087,19.2288106 C138.456132,19.4495777 137.412624,19.6740242 136.370962,19.9046031 L128.865212,21.6682866 C128.333614,21.7989071 127.809399,21.9283011 127.285184,22.0564687 C125.178479,22.5728183 123.071775,23.0879414 120.965071,23.6049043 C120.635283,23.6858522 120.345488,23.8152462 120.332567,23.2381856 C120.207051,17.2860605 120.058769,11.3339354 119.916641,5.38181024 C119.929562,5.37751755 119.943713,5.3738381 119.957249,5.3695454 L119.940021,3.94559789 C119.405347,3.47033548 118.803607,3.13550544 118.12988,2.92393701 L118.12988,15.4168994 L118.107115,15.4126067 C118.10896,18.0986059 118.115113,20.7846051 118.128649,23.4706043 C118.132341,24.1310657 117.885,24.3340488 117.315255,24.4996241 C112.10633,26.0137181 106.906634,27.557861 101.70017,29.0805405 C101.230099,29.2179067 100.830785,29.340555 100.963685,29.9568631 C100.995064,30.1022014 100.977836,30.3149963 101.161188,30.3002785 C102.240382,30.2125849 101.742008,30.9282381 101.665714,31.3378836 C100.885545,35.5355239 100.079533,39.7288715 99.2790594,43.9222191 C99.2575248,44.0313761 99.2052263,44.1344008 99.1252405,44.3613002 C97.875,42.3627451 97.3237129,40.270364 97.1575884,38.0749583 C96.7576591,32.7802284 98.1691018,27.8289139 100.136139,22.9959551 C100.588982,21.8847609 101.127348,20.8085215 101.624491,19.7151114 C101.748161,19.4434452 101.865679,19.1803645 101.883522,18.8639317 C101.911825,18.3708853 101.810919,18.1734214 101.247942,18.2690872 C98.5124257,18.7351509 95.7695262,19.1674864 93.0290877,19.6071808 C90.9143847,19.9463035 88.7953748,20.2621231 86.6843635,20.627002 C86.1853748,20.7128558 86.0838543,20.5877545 86.0740099,20.1106523 C86.005099,16.6722054 85.9331117,13.2343718 85.8543564,9.79653812 L85.5381047,0 L83.8750141,0 L83.8842433,7.00567459 L83.847942,7.03756316 C83.8448656,11.4001655 83.8430198,15.7627678 83.8707072,20.1247569 C83.8756294,20.9526334 83.6855092,21.299115 82.8278147,21.5106834 C76.9740806,22.9530282 71.1406506,24.4769341 65.2912235,25.9401291 C64.48029,26.1424989 64.0717468,26.3393495 63.9074682,27.3505853 C63.6453607,28.9609583 62.9605587,30.506941 62.6030835,32.1228332 C60.6914215,40.7646369 61.1707214,49.2077504 64.725785,57.3933022 C65.2573833,58.6167197 66.1070792,59.7438581 65.8172843,61.2088928 C65.7600636,61.4995695 65.7557567,61.7945388 65.6499293,62.0846022 C63.0885361,69.1240051 63.4749293,76.1302929 65.8997313,83.1132775 C66.579611,85.0719719 67.4533027,86.9448124 68.4180552,88.7636877 C68.3460679,88.8293046 68.3005375,88.8998274 68.2697737,88.8936949 C67.0416832,88.6674087 66.2621287,89.2781976 65.553331,90.1980603 C65.553331,90.1980603 56.1814498,102.414451 48.5747949,103.183456 C48.5649505,103.184069 48.5538755,103.184069 48.5440311,103.184682 C47.6038897,103.390732 46.7505021,103.491303 46.0872348,103.474746 C41.4843564,103.296292 38.2344696,102.260527 35.1943918,100.560621 C24.6319519,94.6551019 14.0812023,88.7299594 3.515686,82.8299598 C2.89302687,82.4828649 2.55277935,82.2915335 2.55277935,82.2915335 L0.426386139,81.2263324 C0.266414427,81.4152109 0.118132956,81.6126748 0,81.8352816 L0,82.9188799 C0.182121641,83.2481907 0.489144272,83.4395222 0.790014144,83.6425052 C5.18923621,86.6069162 9.62968175,89.510003 14.0252122,92.4817729 C20.0432249,96.5506324 26.1215347,100.531185 32.1684653,104.557731 C33.0150849,105.1213 33.0476945,105.164227 32.2429137,105.816716 C31.3759901,106.520105 30.6155092,107.337556 29.7399717,108.029906 C28.6472419,108.894577 28.627553,109.305449 29.5972277,110.281117 C32.7806648,113.485305 36.0108628,116.642887 39.1069307,119.93477 C41.2517822,122.214803 43.5929066,124.304118 45.681768,126.644862 C46.5554597,127.623596 47.426075,128.643417 48.5747949,129.345579 C48.5747949,129.345579 65.2770721,146 109.654455,146 L163.417871,146 L164.751789,146 C164.751789,146 162.144866,118.685596 168.387454,114.592207 C168.750467,114.385544 169.115325,114.183788 169.489413,113.996749 C170.197595,113.644135 170.699661,113.133304 170.981457,112.382696 C171.700714,110.466316 172.440891,108.557907 173.164455,106.642753 C173.316429,106.24108 173.381033,105.824075 173.339194,105.400938 C173.156457,103.576544 173.090007,101.743564 172.956492,99.9154902 C172.701153,96.4384091 172.381825,92.9668471 172.43843,89.4732085 C172.453812,88.5006069 172.53872,87.557441 172.842051,86.6302194" id="Fill-1" fill="#EFEFEF" mask="url(#mask-2)"></path>
            </g>
        </g>
    </g>
</svg>