<?xml version="1.0" encoding="UTF-8"?>
<svg width="225px" height="306px" viewBox="0 0 225 306" version="1.1" xmlns="http://www.w3.org/2000/svg" xmlns:xlink="http://www.w3.org/1999/xlink">
    <!-- Generator: Sketch 51.2 (57519) - http://www.bohemiancoding.com/sketch -->
    <title>slime</title>
    <desc>Created with Sketch.</desc>
    <defs></defs>
    <g id="Main" stroke="none" stroke-width="1" fill="none" fill-rule="evenodd">
        <g id="Desktop-HD-Copy-6" transform="translate(-125.000000, -618.000000)">
            <g id="slime" transform="translate(236.500000, 836.500000) scale(-1, 1) translate(-236.500000, -836.500000) translate(123.000000, 618.000000)">
                <path d="M113,166.868571 L58.4095805,148 C58.4095805,148 -15.6138415,230.085714 3.00327165,286.32 C21.6945566,342.48 39.8666391,328.44 39.8666391,328.44 C39.8666391,328.44 62.2665123,324.502857 36.1580509,273.84 C22.4362742,247.171429 44.4652886,218.942857 68.3485971,198.217143 C68.3485971,198.217143 75.7657737,193.537143 76.1366325,196.434286 C76.5074913,199.257143 81.6253432,197.994286 80.1419078,196.062857 C78.6584725,194.131429 75.7657737,194.057143 79.9193926,191.308571 C84.0730114,188.634286 84.7405573,196.137143 84.7405573,196.137143 C84.7405573,196.137143 86.2981644,201.188571 88.7458327,196.954286 C91.1935009,192.72 85.778962,192.497143 85.778962,192.497143 C85.778962,192.497143 82.9604349,192.2 85.8531338,188.931429 C88.7458327,185.662857 92.751108,187.668571 92.9736233,187.742857 C93.1961386,187.817143 95.7179786,189.005714 95.6438069,191.902857 C95.4954633,194.8 100.910002,199.034286 103.209327,193.388571 C105.508652,187.742857 95.4954633,185.142857 95.4954633,185.142857 C95.4954633,185.142857 86.5948515,183.137143 101.206689,175.782857 C104.17356,174.297143 105.063621,173.034286 104.544419,171.92 C109.736442,168.651429 113,166.868571 113,166.868571 Z" id="Shape" fill="#5DB7B3" fill-rule="nonzero"></path>
                <path d="M50.3713972,278.457729 C50.3713972,278.457729 69.4827327,194.536715 51.0406658,152.129819 C32.5985989,109.722924 22.6339337,14.4934039 77.9601344,2.14332553 C133.286335,-10.2067528 197.38739,31.6793563 204.228802,105.482234 C211.070214,179.285112 172.029548,274.886622 219.993795,311.639265 C267.958041,348.391908 53.9408295,437 53.9408295,437 L12,313.573615 L50.3713972,278.457729 Z" id="Shape" fill="#73C6C8" fill-rule="nonzero"></path>
                <path d="M100,6 C100,6 157.605877,10.8675 186,65 C185.92567,65 144.746759,21.56125 100,6 Z" id="Shape" fill="#9AD3D6" fill-rule="nonzero"></path>
                <circle id="Oval" fill="#202121" fill-rule="nonzero" cx="50.5" cy="99.5" r="5.5"></circle>
                <circle id="Oval" fill="#202121" fill-rule="nonzero" cx="75" cy="88" r="10"></circle>
                <path d="M205.154998,111 C205.154998,111 203.829254,157.215637 213.993296,166.949156 C224.083685,176.682674 216.644785,185.227366 211.489111,182.478204 C206.333438,179.729042 208.17475,171.407256 208.17475,171.407256 C208.17475,171.407256 204.344821,156.472621 201.840637,178.391612 C199.410105,200.236303 174,135.593852 174,135.593852 L190.792765,115.4581 L205.154998,111 Z" id="Shape" fill="#73C6C8" fill-rule="nonzero"></path>
                <path d="M187.925892,279 C187.925892,279 218.509969,335.405914 161.340702,369.279111 C105.874664,402.114617 111.058406,451.923782 155.860746,432.7265 C231.025003,400.558081 224.878566,289.228668 224.878566,289.228668 L187.925892,279 Z" id="Shape" fill="#5DB7B3" fill-rule="nonzero"></path>
                <path d="M181.277874,167.607698 C181.277874,167.607698 168.624054,153.010121 153.513904,164.256213 C151.950785,165.671284 150.387666,167.086356 148.973416,168.501427 C141.827729,177.215287 146.219349,186.376011 147.6336,188.833766 C147.782468,189.057199 147.931336,189.280631 148.005771,189.504063 C161.999407,212.294158 187.828086,279.249371 187.828086,279.249371 L205.990039,295.262019 C205.990039,295.262019 225.86398,352.311733 224.970769,289.527257 C224.300861,241.489312 195.27151,192.036296 181.277874,167.607698 Z" id="Shape" fill="#5DB7B3" fill-rule="nonzero"></path>
                <path d="M149,168 C150.557377,166.666667 152.278689,165.333333 154,164 C154,164 154,164 154,164 C151.95082,165.333333 150.311475,166.666667 149,168 Z" id="Shape"></path>
            </g>
        </g>
    </g>
</svg>