<?xml version="1.0" encoding="UTF-8"?>
<svg width="313px" height="518px" viewBox="0 0 313 518" version="1.1" xmlns="http://www.w3.org/2000/svg" xmlns:xlink="http://www.w3.org/1999/xlink">
    <!-- Generator: Sketch 51.2 (57519) - http://www.bohemiancoding.com/sketch -->
    <title>Group 29</title>
    <desc>Created with Sketch.</desc>
    <defs>
        <polygon id="path-1" points="0.869944444 0.98466939 150.657 0.98466939 150.657 93.9809 0.869944444 93.9809"></polygon>
        <polygon id="path-3" points="0.643320543 0.649 94.2454 0.649 94.2454 121.4677 0.643320543 121.4677"></polygon>
    </defs>
    <g id="Main" stroke="none" stroke-width="1" fill="none" fill-rule="evenodd">
        <g id="pokedex-copy" transform="translate(-227.000000, -217.000000)">
            <g id="Group-29" transform="translate(227.000000, 216.000000)">
                <g id="Group-28" transform="translate(0.000000, 0.351000)">
                    <g id="Group-6" transform="translate(162.000000, 114.000000)">
                        <mask id="mask-2" fill="white">
                            <use xlink:href="#path-1"></use>
                        </mask>
                        <g id="Clip-5"></g>
                        <path d="M34.4095,2.3049 C34.4095,2.3049 67.9185,-7.1311 107.3475,24.4499 C146.7775,56.0309 150.6575,93.9809 150.6575,93.9809 C150.6575,93.9809 57.1835,29.3179 18.1975,43.7289 C-20.7895,58.1399 18.1975,9.9189 18.1975,9.9189 L34.4095,2.3049 Z" id="Fill-4" fill="#91C036" mask="url(#mask-2)"></path>
                    </g>
                    <path d="M168.0784,81.9329 C168.0784,81.9329 232.9934,51.8879 273.4724,62.0249 L301.4364,67.8809 C301.4364,67.8809 220.1054,81.5499 200.1844,118.5819 C180.2644,155.6159 161.0994,144.4009 161.0994,144.4009 L140.8584,117.1799 L168.0784,81.9329 Z" id="Fill-7" fill="#BED575"></path>
                    <g id="Group-11" transform="translate(138.000000, 0.000000)">
                        <mask id="mask-4" fill="white">
                            <use xlink:href="#path-3"></use>
                        </mask>
                        <g id="Clip-10"></g>
                        <path d="M94.2454,0.6487 C94.2454,0.6487 -2.9196,22.8357 0.7444,112.5917 L13.8334,121.4677 C13.8334,121.4677 55.7174,31.6157 94.2454,0.6487" id="Fill-9" fill="#7CAF39" mask="url(#mask-4)"></path>
                    </g>
                    <path d="M101.787,153.8372 C101.787,153.8372 101.803,142.3092 87.455,141.8372 C73.107,141.3642 10.822,138.9202 0,144.7702 C0,144.7702 17.635,118.5882 65.903,118.5822 C114.172,118.5772 143.222,138.4492 143.222,138.4492 L115.706,156.4702 L101.787,153.8372 Z" id="Fill-12" fill="#7FB040"></path>
                    <path d="M123.9681,134.3235 C123.9681,134.3235 123.3401,104.0675 56.2111,87.0185 C56.2111,87.0185 112.2761,45.5695 149.7131,110.6715 C187.1491,175.7725 144.8411,152.1225 144.8411,152.1225 L123.9681,134.3235 Z" id="Fill-14" fill="#91C037"></path>
                    <path d="M60.6702,210.093 C60.6702,210.093 109.8702,154.544 148.0942,159.602 L148.0942,134.323 C148.0942,134.323 117.9912,138.356 90.9662,149.753 C63.9422,161.15 59.6252,184.45 60.6702,210.093" id="Fill-16" fill="#91C036"></path>
                    <path d="M166.4388,164.4397 L169.5338,164.4397 C168.5448,164.2927 167.5058,164.3097 166.4388,164.4397" id="Fill-18" fill="#7CAC37"></path>
                    <path d="M163.0887,177.8333 C163.0887,184.3623 159.0077,189.6553 153.9737,189.6553 C148.9407,189.6553 144.8597,184.3623 144.8597,177.8333 C144.8597,171.3043 148.9407,166.0113 153.9737,166.0113 C159.0077,166.0113 163.0887,171.3043 163.0887,177.8333" id="Fill-20" fill="#744C27"></path>
                    <path d="M159.085,138.491 C150.952,140.516 143.406,144.089 135.754,147.458 C133.565,148.736 131.917,150.502 130.741,152.726 C125.393,168.293 134.478,172.58 147.52,173.764 C155.31,178.246 156.031,186.22 157.781,193.779 C175.888,272.14 176.003,349.777 154.454,428.043 C147.635,452.786 137.064,475.84 129.982,500.261 C126.458,512.403 126.771,518.6 141.702,518.649 L142.048,518.649 C142.278,518.648 142.51,518.646 142.746,518.643 C195.196,517.868 189.833,520.148 201.336,460.595 C217.543,376.683 213.145,292.454 188.257,209.79 C183.778,194.906 170.608,181.99 176.404,164.44 C180.801,160.791 180.896,156.172 179.448,151.193 C175.307,143.544 169.526,138.451 160.498,138.45 C160.034,138.45 159.565,138.464 159.085,138.491 Z" id="Mask" fill="#96622D"></path>
                    <path d="M164.7835,177.3547 C161.2465,171.8667 161.8085,165.2077 166.0395,162.4797 C170.2705,159.7517 176.5685,161.9907 180.1055,167.4777 C183.6425,172.9647 183.0805,179.6257 178.8495,182.3527 C174.6185,185.0807 168.3205,182.8417 164.7835,177.3547" id="Fill-22" fill="#744C27"></path>
                    <path d="M133.8944,188.4358 C133.8944,188.4358 136.3934,185.4988 140.2154,181.6788 C138.1644,183.5528 136.0484,185.8338 133.8944,188.4358" id="Fill-24" fill="#7CAC37"></path>
                    <path d="M194.3421,150.2522 L185.4441,144.9822 C168.7051,129.4852 143.2221,138.4492 143.2221,138.4492 C143.2221,138.4492 82.1371,192.6322 75.5661,276.4882 C75.5661,276.4882 74.5221,299.3592 71.1201,303.5952 C67.7181,307.8302 79.6921,302.4772 87.0991,278.3652 C92.7271,260.0452 114.7951,211.5082 133.8941,188.4362 C136.0481,185.8342 138.1641,183.5532 140.2151,181.6792 C145.5131,176.3842 153.3611,169.4002 160.6811,166.1472 C162.6601,165.2672 164.5981,164.6642 166.4391,164.4402 C167.5061,164.3102 168.5451,164.2922 169.5331,164.4402 C203.0741,173.9242 286.2791,271.8042 286.2791,271.8042 C275.7941,203.2992 194.3421,150.2522 194.3421,150.2522" id="Fill-26" fill="#7CAC37"></path>
                </g>
            </g>
        </g>
    </g>
</svg>