<?xml version="1.0" encoding="utf-8"?>
<!-- Generator: Adobe Illustrator 23.0.4, SVG Export Plug-In . SVG Version: 6.00 Build 0)  -->
<svg version="1.1" id="Capa_1" xmlns="http://www.w3.org/2000/svg" xmlns:xlink="http://www.w3.org/1999/xlink" x="0px" y="0px"
	 viewBox="0 0 480 352" style="enable-background:new 0 0 480 352;" xml:space="preserve">
<style type="text/css">
	.st0{fill:#FFFFFF;}
</style>
<g>
	<g>
		<path class="st0" d="M392,0H88C65.9,0,48,17.9,48,40v216c0,22.1,17.9,40,40,40h109.4L186,336h-26v16h160v-16h-26l-11.4-40H392
			c22.1,0,40-17.9,40-40V40C432,17.9,414.1,0,392,0z M202.6,336l11.4-40H266l11.4,40H202.6z M416,256c0,13.3-10.7,24-24,24H88
			c-13.3,0-24-10.7-24-24v-16h352V256z M416,224H64V40c0-13.3,10.7-24,24-24h304c13.3,0,24,10.7,24,24V224z"/>
	</g>
</g>
<g>
	<g>
		
			<rect x="181.7" y="120.1" transform="matrix(0.2751 -0.9614 0.9614 0.2751 50.7439 323.5728)" class="st0" width="116.4" height="16"/>
	</g>
</g>
<g>
	<g>
		<path class="st0" d="M197.1,94.1l-10.2-12.3l-48,40c-3.4,2.8-3.9,7.9-1,11.3c0.3,0.4,0.6,0.7,1,1l48,40l10.2-12.3L156.5,128
			L197.1,94.1z"/>
	</g>
</g>
<g>
	<g>
		<path class="st0" d="M342.1,122.9c-0.3-0.4-0.6-0.7-1-1l-48-40l-10.2,12.3l40.6,33.9l-40.6,33.9l10.2,12.3l48-40
			C344.5,131.3,345,126.3,342.1,122.9z"/>
	</g>
</g>
</svg>
